<?xml version="1.0" encoding="UTF-8" standalone="no"?>
<svg
   xmlns:dc="http://purl.org/dc/elements/1.1/"
   xmlns:cc="http://creativecommons.org/ns#"
   xmlns:rdf="http://www.w3.org/1999/02/22-rdf-syntax-ns#"
   xmlns:svg="http://www.w3.org/2000/svg"
   xmlns="http://www.w3.org/2000/svg"
   xmlns:sodipodi="http://sodipodi.sourceforge.net/DTD/sodipodi-0.dtd"
   xmlns:inkscape="http://www.inkscape.org/namespaces/inkscape"
   version="1.1"
   id="svg2"
   xml:space="preserve"
   width="1066.6667"
   height="1066.6667"
   viewBox="0 0 1066.6667 1066.6667"
   sodipodi:docname="giraffe.eps"><metadata
     id="metadata8"><rdf:RDF><cc:Work
         rdf:about=""><dc:format>image/svg+xml</dc:format><dc:type
           rdf:resource="http://purl.org/dc/dcmitype/StillImage" /></cc:Work></rdf:RDF></metadata><defs
     id="defs6" /><sodipodi:namedview
     borderopacity="1"
     objecttolerance="10"
     gridtolerance="10"
     guidetolerance="10"
     inkscape:pageopacity="0"
     inkscape:pageshadow="2"
     inkscape:window-width="640"
     inkscape:window-height="480"
     id="namedview4" /><g
     id="g10"
     inkscape:groupmode="layer"
     inkscape:label="ink_ext_XXXXXX"
     transform="matrix(1.3333333,0,0,-1.3333333,0,1066.6667)"><g
       id="g12"
       transform="scale(0.1)" fill = "#F1BEB5" ><path
         d="m 6330,1890 c 80.62,16.59 86.19,609.63 -90,1110 -241.78,686.63 -790.27,1097.85 -1150,1310 -278.33,69.95 -500.86,157.77 -660,230 -404.7,183.67 -533.39,327.2 -570,370 -101.09,118.21 -140.53,217.33 -190,320 -99.43,206.36 -270.04,490.54 -580,810 -57.87,154.38 -135.9,393.64 -310,700 -73.82,129.9 -142.5,232.41 -190,300 -18.25,33.86 -54.65,90.68 -120,140 -53.49,40.37 -105.62,60.05 -140,70 -6.67,56.67 6.67,53.33 0,110 1.42,9.8 8.88,67.82 -30,110 -46.87,50.87 -138.63,54.29 -160,20 -17.66,-28.33 8.22,-89.68 70,-140 -4.98,-39.86 -21.14,-46.21 -31.77,-69.14 -6.19,-13.35 -9.23,-28.68 -8.76,-46.15 -57,-51.26 -81.79,-73.57 -138.8,-124.83 -7.03,1.17 -14.05,2.35 -21.08,3.52 -48.11,8.02 -89.36,-34.58 -79.79,-82.4 l 0.2,-1 c -31.6,-18.81 -77.89,-48.4 -130,-90 -81.8,-65.3 -79.52,-81.64 -130,-110 -81.12,-45.59 -116.64,-20.06 -190,-70 -23.83,-16.22 -78.86,-54.86 -80,-100 -1.56,-61.93 98.83,-129.3 250,-160 43.33,23.33 86.67,46.67 130,70 12.4,-11.43 87.54,-78.37 200,-70 105.3,7.84 167.78,76.08 180,90 24.18,27.53 35.98,29.71 50,30 70.53,1.46 128.16,-204.18 150,-280 173.65,-603.06 262.93,-567.84 340,-1010 39.2,-224.86 20.63,-259.91 74.09,-516.02 41.44,-198.46 90.36,-358.3 125.91,-463.98 -54.53,-68.92 -120.47,-173.9 -140,-310 -36.02,-250.92 109.04,-433.13 210,-620 130.06,-240.75 160.04,-620.5 220,-1380 17.66,-223.68 34.26,-531.15 30,-900 -33.33,-106.67 -66.67,-213.328 -100,-320 26.56,-6.871 56.73,-12.828 90.08,-16.43 71.04,-7.648 132.69,-2.019 179.92,6.43 10,80 20,160 30,240 -16.67,13.33 -33.33,26.67 -50,40 36.67,240 73.33,480 110,720 13.33,-213.33 26.67,-426.67 40,-640 -26.67,-100 -53.33,-200 -80,-300 31.89,-12.328 76.13,-25.48 130,-30 77.55,-6.5 140.79,7.738 180,20 0,90 0,180 0,270 -16.67,3.33 -33.33,6.67 -50,10 6.67,273.33 13.33,546.67 20,820 -81.26,246.06 -156.39,577.7 -150,970 2.17,133.36 13.49,257.16 30,370 104.12,-58.54 234.54,-120.26 390,-170 243.25,-77.81 460.06,-98.16 620,-100 48.63,-103.42 101.82,-210.31 160,-320 59.77,-112.68 120.06,-219.35 180,-320 13.69,-127.28 24.06,-260.75 30,-400 14.47,-339.71 -0.19,-651.74 -30,-930 -33.33,-60 -66.67,-120 -100,-180 20.79,-11.129 71.95,-34.91 140,-30 58.16,4.199 100.17,27.301 120,40 6.67,60 13.33,120 20,180 10,3.33 20,6.67 30,10 13.33,293.33 26.67,586.67 40,880 6.67,-283.33 13.33,-566.67 20,-850 -36.67,-90 -73.33,-180 -110,-270 34.35,-7.949 89.43,-16.09 155.55,-5.758 48.4,7.559 87.2,22.61 114.45,35.758 3.33,56.672 6.67,113.332 10,170 10,6.67 20,13.33 30,20 23.33,606.67 46.67,1213.33 70,1820 32.28,104.01 80.35,307.56 40,560 -41.46,259.44 -155.69,441.46 -220,530 98.97,-54.91 681.47,-390.14 790,-1040 34.25,-205.08 11.95,-385.56 -20,-520 86.7,-255.84 192.82,-531.77 250,-520"
         style="fill-opacity:1;fill-rule:nonzero;stroke:none"
         id="path14" /></g></g></svg>
