<?xml version="1.0"?>
<svg xmlns:rdf="http://www.w3.org/1999/02/22-rdf-syntax-ns#" xmlns="http://www.w3.org/2000/svg" xmlns:cc="http://web.resource.org/cc/" xmlns:dc="http://purl.org/dc/elements/1.1/" id="svg2" viewBox="0 0 266.07 324.64" version="1.0">
  <g id="layer1" transform="translate(16.248 14.6)" fill = "#1F8327" >
    <path id="path1914" d="m122.03 282.92c-6.6-1.11-13.04-2.94-19.49-4.66-1.19 0.14-3.67 0.56-2.31-1.37-4.057 0.07-7.9-2.02-11.881-3.47-2.738-1.89-5.712-4.9-8.848-1.59-1.848 1.07-5.253 5.89-6.238 4.01 1.169-1.27 2.977-3.87 0.19-1.67-1.732 2.8-6.163 7.43-7.832 1.91-1.538-3.38-2.228 0.92-4.46 1.33-2.173 1.36-5.68 5.86-7.147 5.05 0.922-5.88 5.74-11.11 11.817-11.65 2.866 0.28 4.052-1.39 5.153-3.65 5.185-1.42-1.233-5.39-3.769-5.83-5.387-1.46-10.098 2.58-15.066 3.93-2.229 1.28-8.599 2.34-5.702-2.1 1.353-4.15 6.126-8.63 3.362-13.06-1.094-1.73-6.376-4.63-6.649-3.35 3.228 2.85-4.079 7.2-2.208 1.89-0.323-4.72 5.484-6.07 6.988-8.99 1.141-1.53 3.693-0.7 2.748 0.83 4.066 3.05 9.316 0.86 13.823 0.39 4.575-0.63 11.014-1.39 11.912-6.99 0.289-4.01 2.882-9.37-1.055-12.33-3.266-3.21-3.296-8.3-5.618-12.23-0.278-2.83-0.723-5.19-3.701-6.2-2.213-4.19-7.157-4.62-11.209-5.88-5.499-1.88-11.072-3.71-16.153-6.58-1.421-2.76-5.657-0.83-2.077 1.14 2.723 1.17 8.726 2.13 7.75 5.64 0.579 0.89 2.584 2.45 0.311 1.52 1.451 2.07 4.872 6.41 2.694 8.12-14.696-13.12-11.932-3.06-14.342-6.09-1.047-3.46-4.349-7.58-5.53-11.66-3.976-10.63-8.422-21.19-10.596-32.37-3.29-4.67-1.98-10.75-1.871-16.08 0.523-6.25 1.346-12.78 4.811-18.16 3.297-6.98 5.226-14.56 9.269-21.19 4.882-8.721 10.814-16.806 15.842-25.439 3.579-3.017 2.682-8.21 5.778-11.341 2.818-2.147 6.047-4.554 6.613-8.304-1.109-0.166-4.714 5.083-3.26 0.975 1.059-2.55 6.809-2.951 4.518-6.22 0.839-3.19 4.84-3.275 3.751-6.784 0.513-3.941 3.827-6.697 5.235-9.811 0.863-3.495 3.671-6.426 5.989-9.183 4.901-5.365 10.443-10.495 17.466-12.858 4.978-1.778 10.342-2.7664 15.622-2.443 6.31 1.588 11.68 5.491 17.22 8.726 2.8 2.462 3.95 6.289 7.93 7.865 4.27 1.827 7.71 5.077 10.95 8.34 2.87 2.678 4.6 6.457 4.15 10.438-0.29 3.768-0.37 8.353-3.56 10.936-1.95-0.717-1.8-4.807-5.12-4.71-5.15-1.641-10.19-3.643-15.35-5.319-4.18 3.872-8.93 7.247-12.26 11.948-0.81 9.611-0.21 19.66 3.6 28.622 1.53 4.546 6.6 4.655 10.17 6.665 3.5 1.525 7.46 1.76 10.56 4.223 3.94 2.494 8.29 4.884 10.83 8.934 0.69 1.39 3.25 0.19 3.23 2.33 2.76 1.96 5.95 2.91 9.02 4.14 2.61 0.86 4.8 3.12 3.19 3.49 2.01 1.42 4.69 2.56 5.18 4.98 3.09-0.15 6.46 2.59 9.44 4.07 2.56 1.27 6.9 5.45 2.18 6.64 1.28 2.93 5.46 3.34 7.93 5.22 3.19 1.25-0.44 5.72 3.94 5.34 4.01 0.23-3.68 1.78 0.43 3 2.62 1.83 0.62-3.03 1.92-0.52 2.32 2.16 4.11 5.32 4.35 8.12 3 0.36 1.71 3.42-0.37 1.21-3.04-2.84-5.69 2.34-2.14 3.55 2.42 3.28 4.5 7.18 5.82 11.21 1.85 3.1-3.04 6.21-3.9 2.53 2.01-0.55-2.68-3.91-4.11-4.53-3.8-1.62 6.1-3.82 0.51-5.85-2.19-1.26-7.02-3.34-8.26-2.03 2.13 1.37 5.94 1.63 5.3 4.79 2.04 2.23-1.86 3.66-2 0.64 0.86-1.25 0.46-4.26-1.02-2.15 0.14 3.99 3.52 7.09 3.64 11.16 1.89 4.51 5.65 8.26 6.39 13.21 0.25 3.46-6.43 2.27-2.95 5.59 2.09 2.29-0.68 3.76-1.64 5.07 1.72-0.5 4.46-2.97 5.58 0.34 4.05 4.59 7.77 9.6 10.08 15.31-1.01 1.42-3.96 1.82-1.48 3.97 1.46 4.1 1.86 8.65 4 12.39-1.91 1.65-4.91 1.04-6.95 2.3-3.53-1.53-6.99-2.62-10.87-2.58-3.22-0.66-6.08 1.68-8.81-1.34-3.39-2.97-8.16-3.21-11.28-6.53-3.71-3.26-6.77-7.19-10.03-10.86-1.04-1.85 0.69-5.46-2.57-3.3-1.05 3.25 3.29 4.98 4.63 7.54 2.24 2.92 4.45 6.15 7.88 7.78 1.11 2.19-3.17 2.74-4.44 3.3-1.65-0.31-7.01-2.79-6.28-0.76 3.16 3.06-1.68 6.77-2.84 9.74-0.99 4.57 4.47 6.53 8.16 5.6 2.32-0.44 6.83 1.92 7.96-0.06-1.49-1.73 4.74 0.59 6.64 0.17 2.95-0.17 6.83 0.68 8.8-1.99 2.45-2.89 6.98-1.78 8.43-4.82 3.23-1.22 2.86 2.03 0.54 3.04-1 1.09-4.43 3.94-4.22 3.17 1.72-1.43 0.99-3.56-0.88-1.57-1.1 1.07-3.19 4.72-2.36 4.85 4.91 0.39 9.37-3.23 14.26-2.43-1.9 1.91-5.28 2.12-7.9 2.91-1.88 0.42-7.32 1.81-6.48 2.4 1 0.99-0.22 3.18 1.88 1.15 3.03-0.73 5.37-2.88 8.96-2.38 2.94 1.64-3.64 1.21-4.77 2.57-3.53 1.64-5.76 5.81-10.31 4.8-4.19-0.17-8.45 0.12-12.58-0.82 2.6-0.51 5.66-1.25 7.84-1.19 2.49 1.13 7.7 1.38 8.75-0.39-3.39 0.1-6.35-1.01-9.67-0.86-2.78 0.59-6.98 0.45-8.71 0.66 1.45-2.29-2.8 1.74-4.48 1.08-0.96-0.42 1.37 1.77-0.88 1.6-2.98 0.74-6.16 0.44-7.02-2.97-3.73-0.82 3.08-2.29 4.68-1.79 6.85-0.69 13.87 0.28 20.61-1.43 4.03-0.83-2.79-5.14-1.07-2.72 0.4 2.4-5.5 1.66-7.69 2-4.42 0.3-8.86 0.18-13.26-0.23-3.59 1.48-7.28 1.23-10.84 1.04-2.83 0.65-4.68 6.27-7.07 5.36 1.3-3.07 7.58-4.99 4.99-8.63-1.69-2.66 0.83-3.71 2.77-4.32-3.97-2.51-5.6 2.84-8.92 3.47-2.57-0.15-3.6 7.03-5.23 3.55-0.24-2.32-5.43-0.75-3.72 1.54-1.47 2.13-8.28 3.26-5.57 6.28 1.73 0.57-0.3 3.77 2.25 2.02 4.06-1.56-2.08 2.91-3.64 0.32-3.13 0.21 2.27 2.46 3.36 2.64 6.89 2.25 13.3 6.02 18.81 10.72 2.84 2.47 6.29 6.31 3.73 10.2-1.95 4.41-7.29 3.98-11.31 4.44-7.1 0.23-14.28-0.15-21.29-1.36zm11.75-1.59c1.26 2.9 8.01-1.13 3.13-0.66-3.06 0.19 4.05-3.23-0.12-2.69-2.76 2.1-5.99 1.3-9.15 2.09-1.12 2.98 5.8-2 3.29 2.06 0.53 1.06 1.89-1.7 2.85-0.8zm10.16-0.75c1.12-1.69 7.53-0.3 3.04 0.4-4.42 1.56 7.41 0.96 2.85-2.04-2.3 0.26-5.52-5.35-1.47-2.62 3.3 1.46 8.13-1.97 3.62-4.35 0.48 4.76-4.71 1.29-5.2-1.57-1.23-1.57-1.3-3.04 0.49-1.04 1.08-2.78-3.55-2.4-3.86 0.36-4.49 1.21-3.09-5.95-6.91-5.18-2.4-1.75-5.14-1.76-7.15 0.24 0.2-4.46-4.45 1.33-6.93-0.68-2.66-0.34-7.36-3.77-6.83 1.2-1.85 1.26-5.76-1.17-1.87-1.77 1.41-0.79-4.42-4.34-2.33-0.61-0.48 1.06-5.68 1.1-2.93 2.43 4.02-0.56-0.54 2.09-0.22 3.47 1.67 1.66 5.73 2.74 6.62 0.39 2.38 1.18 4.88 1.88 6.36-0.76 1.78 1.07-1.11 2.5-1.68 3.52-2.76-0.85-5.37-1.06-7.85 0.24-2.37-1.37-5.93-0.34-7.53-2.31 0.75-1.37 3.88-2.3 0.68-2.74-1.66 1.02-3.53 2.55-3.72-0.67 0.62-2.9-1.636-2.94-2.108-0.11-0.384 1.49-2.766 4.8-1.585 1.14-2.557-1.24-6.688 4.31-5.688 4.97 3.384-0.23 8.551-5.07 10.821-1.6-0.98 0.64-2.718 0.38-0.72 1.23 2.99-0.82 2.7 0.48 1.05 2.29 2.78-1.9 6.11-2.42 9.38-0.94 2-0.06 7.17 4.09 2.82 2.54-1.2-1.08-6.25-1.02-3.01 0.83 2.93 1.12 8.27-0.65 9.01 3.35 1.67-0.17 6.2-0.41 2.72-2.19-3.02-2.81 7 1.66 2.65-1.34-3.37-1.62-2.56-5.05-2.66-7.96-2.21-2.73 6.12-4.72 1.89-1.98-2.27 2.25 3.43-0.7 4.59-0.34 2.01-0.55 3.9-0.06 1.03 1.1-1.95 2.33-7.02 2.29-4.41 6.1 1.06 2.41 2.14 6.07 5.35 3.89 2.86-0.55 8.19-1.86 9.05 1.21 1.52-0.61 4.23-2.65 2.1 0.42-0.94 1.01-3.51 3.13-0.34 2.28 0.27-0.09 1.14-0.26 0.88-0.8zm-24.12-4.45c-2.67-1.68 2.77-3.24 1.41-0.26 0.33 1.66-0.78 0.27-1.41 0.26zm10.25-1.34c1.71-1.39 4.73-0.56 1.36 0.58-1.08 0.65-3.71 0.23-1.36-0.58zm-2.96-1.93c0.69-3.07 7.12-3.6 8.27-1.82-0.88 1-4.69-1.03-3.24 1.53-1.93-0.87-3.58-0.33-3.66 1.2-0.56-0.08-1.04-0.46-1.37-0.91zm-9.54-4.21c-2.23-2.06-8 0.58-8.74-0.34 3.02-2.01 6.64-2.12 9.79-1.34 5.33-4.23-0.32 5.77-1.05 1.68zm0-3.8c1.87-3.4 2.36 2.24 0 0zm-41.904 6.32c1.854 0.59 3.471-1.26 1.222-2.15 2.209-0.39 9.151 0.52 7.445-2.79-1.385-3.15-6.729-2.52-8.079-0.47 1.322 1.6 4.801-2.66 3.346 0.9-1.687 1.49-7.663-0.42-6.722 2.37 1.13 2.81-7.913 3.15-4.081 7.22 2.47-1.04 4.146-4.09 6.869-5.08zm4.563-3.93c1.786-3.92 2.959 2.35-0.112 0.75-0.115-0.24 0.097-0.5 0.112-0.75zm26.011 8.09c-1.92-3.22-0.35 3.81 0 0zm-13.8-12.79c-1.197-1.24-5.366-2.05-1.419-3.17 2.873-0.55 7.301-4.87 9.329-2.11 0.43 1.87-0.773 8.14 1.85 4.05 2.44-3.99 7.21-3.68 11.25-3.4 4.26-0.16 8.33-1.61 12.48-2.22-0.76-4.35-6.5-0.01-8.98 0.96-1.05-1.78-3.86-2.86-6.13-1.32 0.49-3.45-5.03-0.42-3.89-0.12-2.46-3.33-2.77 3.32-2.81 1.79-1.72-4.36-7.452-4.82-11.194-2.97-3.267 1.08-6.98 4.65-5.096 8.23-2.426 0.83-4.097-1.12-1.545-2.84 1.85-3.18-5.945 0.71-5.188 3.13 2.043 0.32 3.917 1.29 5.396 2.76-1.223-2.64 5.516-3.28 4.294-2.57-0.265 1.93-0.604 3.02-2.119 3.05 0.059 5.53 5.826-0.78 3.772-3.25zm-39.783 0.8c2.444-2.11 5.927-1.41 8.715-3.05 2.149-3.61 9.909-0.44 9.513-6.26-3.982 0.77 1.075-2.13 2.326-1.86 3.933-2.3 1.261 2.87-0.338 3.83 1.105 0.5 2.938-0.88 2.331 1.24 0.827-1 2.435-3.65 2.413-0.58 0.765 4.57 5.006-4.08 2.126-2.91-1.936 4.39 0.363-3.11-2.979-2.98-3.575-1.59-6.152 3.22-9.716 1-5.388-1.4 2.934 6.59-2.031 4.28-2.028 0.51-2.415-1.43-0.569-2.2-1.678-3.61-7.419 2.11-6.724 2.78 1.364-1.28 3.96-2.08 1.868 0.36-2.673 2.87-7.805-1.15-3.261-3.24 2.252-3.07 1.622-7.98 5.829-9.62 1.823-0.87 3.894-2.89 0.529-1.78-2.969-0.39-4.314 1.82-4.888 4.12-1.697 1.03-4.397 4.83-1.426 3.07-1.445 2.91-3.313 5.49-4.503 8.6-1.071 1.5-0.875 2.2 0.379 3.16-0.923 0.6-3.218 3.62-1.004 2.88 0.217-0.54 0.728-1.32 1.41-0.84zm1.248-4.07c1.137-2.6 5.668 2.52 1.226 1.2-0.585-0.1-1.231-0.53-1.226-1.2zm75.755 1.93c1.78 0.53 6.62 2 6.32 0.36-4.11-1.01-8.19-3.13-12.23-3.59-0.82 2.06 3.94 4.94 5.91 3.23zm-53.089-0.79c-0.072-3.4-6.082-1.23-2.61-0.14 0.943 0.22 2.869 2.71 2.61 0.14zm21.849-1.21c2.96-0.37-2.107-2.69-2.674-0.28-1.696 1.22-0.75 3.63 0.468 1.05 0.549-0.55 1.384-1.17 2.206-0.77zm10.35 1.39c-1.88-2.39-4.22 2.68-0.48 1.2 0.94 0.09 1.41-0.71 0.48-1.2zm-27.199-1.3c4.389-2.76-4.683 0.2-2.973 1.34 1.04-0.32 2.025-0.81 2.973-1.34zm5.822-4.81c2.243-2.09 6.002-2.98 6.726-6.36-3.245 1.09-6.222 3.26-9.792 3.06-2.464-0.77-4.694 0.22-3.109 2.92 0.092 3.36 5.11 2.72 6.175 0.38zm17.177-2.69c-2.17-3.7-1.27 2.89 0 0zm6.5 0.01c0.88-1.58 6.04-3.69 2.5-0.93 1.6 2.62 5.95 1.38 6.23-1.58 2.78-0.69 4.75-2.4 7.08-3.11-0.59-2.54 1.71-1.64 2.26-3.44-2.7-2.46-7.84-0.48-11.31-2.48-1.99-1.3-3.8 0.11-1.23 1.46 3.28 1.41 1 6.71-1.19 3.31-2.06-1.28-7.91-2.23-7.65 2.41 0.61 1.25 0.51 2.85-1.1 1.58-2.76 3.04 2.15 5.22 4.28 2.89l0.13-0.11zm-1.5-3.44c0.39-1.67 5.89-2.93 2.4-0.79-0.77 0.3-1.5 1.07-2.4 0.79zm26-1.39c-1.98-0.28-7.1 1.98-3.25-0.76 2.68-0.66 5.81-7.12 0.9-4.38-3.56-1.22 0.4 5.44-3.23 3.56 1.68-1.09 1.27-2.35-0.03-0.68-0.35 3.4-5.43 1.57-5.35 3.88-0.9 1.31-7.91 2.45-3.28 1.87 4.08-0.27 8.72 1.13 12.11-1.97 0.75-0.45 1.48-0.93 2.13-1.52zm-9 2.43c0.99-2.11 3.85-0.31 1.03 0.36-0.29 0.1-1.02 0.14-1.03-0.36zm-62.69 0.47c1.743-3.12 6.52-0.01 9.337-1.96 2.667-0.4 10.519-2.28 6.873-5.73-2.625-0.48-4.915 3.68-5.424 3.99-0.003-2.88-6.18-2.72-3.315 0 2.066 3.27-3.985-0.04-5.035-0.87-0.896-0.99-1.154-1.78-2.201 0.02-1.565 0.67-5.98 3.7-3.292 5.11 1.019-0.19 2.013-0.49 3.057-0.56zm40.52-0.09c2.64 0.25-2.76-2.98 1.18-2.22 2.72-0.49 0.21-3.67-1.36-1.74 0.14-3.04 6.86-2.93 5.62-6-2.45 1.36-3.26 0.98-4.4-1.33-1.2 0.64-4.66 1.87-4.3 2.32 1.46 0.2 4.77 2.03 1.77 2.48-1.98 0.41-1.39 4.46-2.58 5.06 1.23 3.35-4.774-2.73-1.865 0.88 1.565 1.64 4.015 0.85 5.935 0.55zm-50.829-2.98c-0.719-2.5-5.932-0.83-2.339 0.6-1.064 2.01 2.352 0.33 2.339-0.6zm37.026 1.26c1.872 0.79-2.838-3.74-3.189-0.68-2.578 3.72 1.876-1.89 3.189 0.68zm-34.526-2.27c1.557-1.46 1.786-3.85-1.053-2.56-2.587 1.26 0.843 5.54 1.053 2.56zm31.614-3.5c-0.69 3.35 1.887 1.08 1.764-0.29 2.316-0.82 6.846 1.99 3.103 3.75 0.38 2.52 2.693-3.07 4.596-2.35 1.867-3.78-4.763-2.18-6.636-3.45-1.867 0.12-4.365-3.91-1.875-3.38 2.715 2.37 7.685 3.94 10.752 1.56 2.221-3.57 1.041-8.08 1.481-12.08 0.09-12.03-2.446-23.93-2.426-35.93-0.088-3.88 4.036-4.89 6.626-2.65 4.75-0.62-3.48-4.18-5.322-4.75-1.065-0.53-6.065-4.11-3.539-1.1 1.712 1.13 5.861 4.3 1.492 4.69-2.239-0.25-6.65 0.19-7.517-1.4 1.598-0.68 5.586-0.33 2.214-2.24-1.367-0.9-6.871-2.29-4.572-3.77 3.535 1.18 7.067-1.54 10.463-0.03 1.502 0.84 5.161 0.81 2.191-1.16-1.536-1.35-5.584-3.63-3.122-5.86-3.325-1.18 2.411-1.5 3.132-0.05 2.28 0.61 3.37 7.4 5.63 4.15-0.84-3.47-4.75-5.76-7.581-7.05-1.082-1.16-5.151-4.51-5.01-2.48 4.627 2.09-1.453 6.08-4.342 4.19-2.523 0.2 1.973-2.23-1.352-1.63-1.743 2.99 5.081 3.81 6.986 5.28 5.239 2.35-2.362 4.39-4.6 2.61 4.485-3.11-4.009-2.21-4.512-5.41-1.655-4.32 5.571-3.52 5.574-7.44 0.217-2.4-4.254-4.74-3.417-0.84 0.044 2.1-5.676 0.7-4.554 4.65 1.786 1.57-3.445 6.14 0.935 5.53 2.361-1.13 6.15 3.93 1.878 3.17-3.886 1.64-6.578-1.91-6.501-5.28-2.42-3.41-6.893 0.27-9.405-3.48 0.36-1.36 6.057 2.27 4.685-1.59 1.993-2.2 3.938 3.19 6.275 3.54 3.798 0.64-0.062-5.3-2.299-5.56-2.231-2.73 1.147 2.25-1.702 0.92-1.352-1.26-3.518-4.75-0.036-4.18 2.028-2.02 2.707-5.21 4.33-7.35-0.428-3.38 1.392-1.69 2.419-0.96-1.28-3.53-0.566-7.22-1.467-10.74-1.539-2.69-1.944 2.51-4.088 2.24-0.435 2.28 4.527 2.31 2.917 5.55-2.844 3.11-4.523-4.27-4.207-6.55 0.945-2.95-1.273-7.73-4.564-4.69-2.064 1.64-2.849 6.79 0.352 3.77 0.743-0.35 3.985-1.69 1.82 0.63-1.681 2-6.973 3.69-5.36-0.52-1.95 1.81-0.813 7.54-4.976 7.05-3.798-3.04 2.347-6.8 2.238-10.35-1.469-2.78-2.001 1.63-2.768 2.19-2.373-0.66 0.398 4.94-2.543 2.44-4.091-1.36-5.744 6.34-9.125 6.39-1.795-0.91-4.875-0.44-2.23 1.76 3.619 4.36 5.658-4.1 7.974-4.38 1.159 1.07 3.379 3.49 2.431 0.13 1.956-2.69 2.053 3.91 4.613 3.96 4.546 2.96 2.209-5.37 6.24-4.15 2.787 3.08-3.103 6.16-1.53 8.65 4.172 1.53 3.715-4.99 3.266-7.52-2.701-3.04 3.627-4.2 3.25-0.4 1.185 1.64 5.493 5.24 3.219 6.42-2.954-1.45-2.932-5.45-5.471-7.27 1.249 4.24 2.718 9.6 0.167 13.42 0.77 2.08-1 4.82-2.467 1.91-2.244-0.56-1.595 3.53 0.718 2.2 2.403 1.81-3.373 2.92-3.521 0.22-1.227-1.8-2.3-1.28-2.38 0.33-2.173 0.06-7.599-2.02-4.387 1.06-3.112-0.99-6.982-1.88-9.679-3.17-1.387-2 0.23 3.24 2.199 1.89 2.046-0.58 3.956 2.19 0.921 1.47-1.149 2.23 2.544 2.5 3.511 0.87 3.489-0.53 7.221 0.09 10.454 1.48 3.173 0.57 3.835 5.79 6.841 3.41 1.669-0.35 4.361 2.08 1.35 0.86-1.642 2.26 4.076 4.33 6.012 5.5 2.369 1.71 7.158 3.74 5.628 7.39-0.687 2.08 3.395 1.26 4.197 2.27 4.555-0.34-1.78 4 0.117 6.34 0.663 4.1-1.621 8.06-1.249 12.3-0.334 5.13-0.543 10.38-2.34 15.26-3.392 2.58-2.088 7.26-2.554 10.88-0.651 2.26-2.167-1.71-2.701 0.89-3.432 2.34-7.438 3.79-10.956 6.01-1.657 0.61-6.445 1.33-5.914 2.33 4.273 0.36 8.444-1.1 12.639-1.46 4.377-0.45 3.705 3.66 2.41 5.59 1.799-1.04 2.632-3.74 4.787-4.16zm-7.114-3.59c-0.84-0.84-2.931 0.26-0.812-1.51 2.975-2.19 5.293 2.76 0.993 1.93l-0.181-0.42zm3.658-71.36c-0.797-1.97 3.821 0.2 1.562-2.08 3.494-0.92-1.041 6.16-1.562 2.08zm77.341 76.89c-1.85 0.31-3.84-3.91-3.25-0.22 0.65 1.02 2.94 2.08 3.25 0.22zm-6.49-1.42c0.96-4.15 2.11-8.41 4.89-11.74 1.45-2.03-0.4-4.63-1.95-1.64-1.28 1.99-4.6 4.78-4.49 6.35 0.88-0.71 2.19-2.91 1.46-0.29-1.32 2.34-1.21 5.43-3.31 7.33 1.56-1.29 3.36-0.11 1.34 1.21-0.23 2.04 3.2 0.03 2.06-1.22zm-22.98-2.97c2.12-2.65 5.51-6.27 8.52-6.62 3.3 1.4-2.03 8.06-0.48 3.08-0.7 0.31-3.88 4.22-2.99 0.82-2.39-0.4-5.17 5.17-1.17 2.53 4.15-0.36 8.96 0.33 12.18-2.94 2.11-4.07 5.79-6.49 8.78-9.73 1.26-2.69 3.61-3.75 5.96-4.07 0.19-3.54-4.57 1.15-6.1-1.9-2.64-2.77-4.94-5.84-6.9-9.11-0.9-1.48-2.99-1.94-1.35 0.13 1.2 2.03 0 5.35-1.94 3.57-1.8 1.66-4.37 4.38-6.55 2.25-0.03 3.54 3.99 6.49 3.33 10.48-0.01 1.22-0.09 4.45-0.35 1.42 0.61-3.04-3.33-5.56-3.81-1.56-0.83 3.63-5.52 2.42-7.21 5.71-2.51 1.32-2.4-2.1 0.09-2.14 0.44-1.98-2.29-1.93-2.3 0.01-1.38-0.45-3.57-1.08-1.96 1.19-1.04 2.54-6.17-0.32-8.48 1.75-1.03 0.61-3.26-2.01-4.58 0.56-3.08 4.06 3.46 3.62 5.91 3.5 3.89 0.08 8.23-0.27 11.58 2.04 0.49-0.09-0.36-0.9-0.18-0.97zm-16.2-3.51c1.92-3.22 0.36 3.81 0 0zm28.9-16.54c0.93-2.63 3.35-1.44 1.19 0.56-1.33 1.92-2.76 1.83-1.19-0.56zm-31.92 16.36c-0.95-1.86 4.84-5.99-0.06-4.81-3.26 0.71-1.54 5.72-5.37 4.25-4.62 0.2 1.87 1.6 3.52 1.13 0.66-0.07 1.39-0.12 1.91-0.57zm27.22-2.17c-1.95-0.61-2.86 2.78-0.58 0.94 0.21-0.18 0.89-0.52 0.58-0.94zm-30.93-2.44c0.01-0.68-3.94-1.3-3.18-0.76 0.19 1.7 2.51 2.82 3.18 0.76zm-22.955-3.65c2.389-4.45-6.368-3.75-4.394-0.92 1.382 0.73-2.393 2.6 0.665 2.25 2.188-0.63 2.576 1.32 0.386 1.17 2.497 3.43 3.385-0.18 3.343-2.5zm27.855 1.47c3.9-0.57-2.98-2.02-0.16-3.15-1.69-3.77 5.39-4.57 2.55-8.55-1.85-1.43-8.44 2.97-3.91 3.33 1.17-1.01 5.27-2.81 2.8 0.19-4.67-0.09-5.33 7.51-3.86 9.95 0.88-0.53 1.47-1.69 2.58-1.77zm24.93-2.68c-1.97-0.12-2.48-0.53-2.74-2.47-1.12-1.82-5.2-3.66-4.45-0.08-1.79 1.81-2.83 5.1 0.67 5.02 0.06 4.46 4.79-0.4 6.26-1.78l0.26-0.69zm-6.39 0.66c-1.84-2.65 2.22-3.67 2.65-0.76 2.02 2.67-1.68 2.03-2.65 0.76zm-7.33-0.52c-0.73-3.84-3.48-0.33-0.89 1.41 2.64 2.58 1.51 0.06 0.89-1.41zm81.4 1.6c-0.05-4.81-3.88-8.01-7.09-10.98-2.18-3.47-6.99-7.48-7.27-10.96 4.34 3.88 7.23 9.17 11.83 12.8-1.13-3.32-3.36-6.28-4.63-9.57-2.88-4.35-6.77-8.04-11.29-10.63-2.79-0.84-3.15-3.95-6.44-3.9-2.2-1.74-5.97-1.55-7.61-2.72 5.45 1.23-3.07-5.38-2.66-0.48 1.97 3.9 7.39 3.84 10.74 6.18 2.61 1.77 8.72 2.22 8.54 5.77-1.56-0.67-3.95-1.76-4.9-1.78-2.81-2.96-7.82-2.04-10.85-5.03-2.5-2.12-7.63-4.23-9.44-4.42 1.41 3.91 7.75 2.48 9.43 6.61 2.8 1.83 7.54 1.06 8.65 4.78-1.9 3.01-6.81-1.53-9.37-2.83-4.06-1.96-8.98-3.25-12.07-6.54-0.68-2.02-7.59-1.47-4.36 0.52 4.6-1.36-0.08 3.05-2.19 1.44-4.83-1.59-7.22-6.62-11.8-8.62 0.72-4.68-2.12-9.02-4.53-12.77-1.29-1.5-3.95-2.5-0.47-2.19 5.26-0.03 5.85-5.52 4.59-9.42-0.8-2.1 0.26-7.49-2.29-7.34-0.33 2.84 2.58 6.21-0.7 8.11 4.56 2.16 0.29 8.58-3.88 7.3-2.45-0.05-6.38-2.8-6.13-4.5 1.93 0.91 4.26 5.6 5.06 1.19 3.78-2.46 5.06-6.26 4.3-10.61-0.95-2.18 1.59-8.11 3.56-4.81 0.03 3.55 1.32 6.67 1.97 10.3 1.07 1.68 1.89 1.13 1.85-0.36 3.29 1.72 1.66 4.11-1.2 3.43 0 1.73-2.64 3.1-0.45 5.27 2.1 3.2 2.84-0.21 2.23-2.31 1.49-3.65 1.76 1.4 1.61 2.84 0.69 3.21 5.49 3.86 2.63 7.69-0.38 2.27 2.08 4.47 4.39 4.32-2.5 3.08 3.8 7.86 4.84 7.2 0.11-2.17 1.97-2.34 2.04-0.36 1.58 0.49 5.78-2.86 4.83 0.67 2.06 0.13 1.03-3.38 3.17-3.22-0.51-2.25-2.22-4.98-3.65-1.55 1.52 2.01-1.17 0.86-1.59 2.63-3 0.93-3.6-4.88-5.95-1.97-2.62 0-0.88-1.58 0.41-1.74-1.23-3.47-4.18-5.36-5.64-8.8-2.16-3.67 2.57-6.18 4.61-8.52 0.14-1.39 3.37-6.08 2.82-2.4-0.09 2.57-4.33 5.34-3.74 6.37 3.33 0.07 3.87-8.27 7.08-4.96-0.38 0.87-3.86 1.29-0.92 2.18 4.23-0.56 3.66-6.46-0.14-6.4-1.06-2.28-2.15-7.85-1.16-8.6 1.79 1.79 0.57 8.18 2.82 7.54 1.35-4.4-1.1-8.61-4.63-10.84-0.34-1.36-1.93-6.9-2.95-4 0.99 1.92 2.1 4.14 0.64 5.86 0.43 1.43 3.64 4.58 0.24 4.39 1.2 1.76 3.74 3.09 0.74 4.35-0.13 1.33-0.42 6.27-2.07 3.13-0.08-4.38 1.25-8.68-0.46-12.93-0.23-4.6 0.07-9.38-1.91-13.67-1.37-1.52 0.19-5.08 1.18-2.08 1.75 2.91 0.93 8.97 5.88 9.67 4.5 2.69 6.68-5.28 4.22-6.64-3.72 3.35-2.06-4.37 1.07-4.06 2.23-1.16 4.3-0.93 3.01 2.03-0.33 2.22-3.11 7.56-1.93 7.73 0.89-1.54 3.08-2.96 1.74-0.09-0.86 1.2-1.23 5.95 0.32 4.81 0.77-3.34 0.6-6.79 0.63-10.05 2.74-0.48 1.16 5.23 1.3 7.16 0.09 2.75-2.18 6.39-2.77 8.02 2.27-1.98 4.93 2.45 1.77 2.84 0.27 1.51-1.27 7.27-2.17 3.04 1.18-2.07-2.7-5.83-1.9-1.68 0.77 1.3 1.87 2.78-0.2 2.5-0.7 1.56 2.32 4.03 0.73 1.26 2.49 2.99 1.09 8.02 5.19 10.1 1.67 0.89 4.9 5.44 0.95 3.35-2.73-1.29-4.34-8.15-7.53-6.31-0.2 1.97 3.08 2.47 0.38 3.01 0.91 3.22 4.49 5.5 6.96 7.73 3.06 1.93-1.26-1.84 1.77-1.24 1.45 2.19-2.52 5.35-3.54 2.03-4.12 0.29-4.14-4.43-6.92-6.5-1.14-1.43-3.1-1.85-1.46 0.4 2.14 3.53 4.91 6.68 7.48 9.66-0.44 2.14 3.78 1.63 5.08 3.68 3.17 2.82 7.23 4.96 10.51 7.9 1.89 3.44 4.04-0.78 0.74-1.7-3.96-3.46-8.85-5.74-12.53-9.54-0.41-4.81 4.35 1.04 3.49 1.89 1.77 0.06 5.75 3.55 4.34-0.4-3.28-1.11-7.97-6.59-2.52-8.02 0.56-1.07-1.05-4.31 1-1.78 2.84 4.07 7.14 7.04 9.25 11.63 2.07 0.64 5.92-0.3 2.59-2.25-2.8-2.93-5.5-5.97-8.62-8.57 0.07-1.85-0.37-2.15-1.81-2.42-0.51-2.61 5.32-3.41 2.25-6.53-1.1-2.31-1.78-5.34-1.26-7.26-1.92-2.2-1.33-7.44-5.37-6.66-2.01-2.03 1.78-1.89 1.13-2.09-3.31-3.2-2.74 3.14-3.4 5.08-0.94 2.21-1.23 3.83 1.43 4.31 1.63 3.08 4.47 7.44 2.56 10.85-2.35 2.02-6.13 0.15-6.12-2.99-1.29-1.84-5.06-4.09-1.71-6.32 1.36-0.13 6.15 0.74 2.45-1.12-3.33-0.37-3.06-2.05-0.88-3.96 1.7-1.94 3.14-6.64-0.1-5.14-1.65-1.58-0.63-3.92 0.44-4.68-0.52-2.11 0.65-4.37 1.75-1.21 0.46 1.41 2.15 2.7 1.28 0.36 2.49-1.8 4.51 5.37 5.88 2.49-1.36-0.66-0.62-4.14-3.5-4.06-5.04 0.67-5.99-4.23-5.99-8.22-1.49-3.38-2.4-7.43-4.83-10.33-3.35-0.09 1.28 8.7-4.31 6.23-3.14-2.06 2.93-3.49 0.78-6.17-1.09-3.09-4.42-5.87-6.48-7.51 1.6 3.11 5.3 5.91 4.96 9.56-2.58 2.5-0.84-3.1-2.77-4.12-2.36-2.64-2.52-7.39-6.04-8.69-2.58 0.48 1.74 3.81 1.57 5.55 0.1 2.58 4.84 5.27 2.98 7.27-2.44-1.52-2.52-5.24-5.66-6.64-0.98-2.73-4.36-5.24-3.93-8.63 0.51-1.74-2.16-4.72-1.67-1.42 0.01 2.57 1.65 6.07 2.07 7.46-1.28 0.29-4.6-0.72-1.91 0.99 3.08 2.64 8.43 6.82 7.15 10.99-3.15-0.92-3.1-7.55-5.69-7.24-1.77 1.05-5.13 5.83-1.05 3.87 3.6-0.5 2.58 3.59-0.55 2-4.7-1.1-1.42-6.41-4.43-8.91-3.65-2.89 1.91 3.93-0.9 3.37-1.29-2.37-6.3-1.86-6.02-4.01-2.49 0.44-3.35-5.91-4.53-4.35 1.3 1.76 2.1 6.2-1.42 4.03-0.96-3.29-4.74 1.55-4.3-2.37-2.22-3.7-4.94 0.71-5.68 3.08-0.36 2.25-1.07 4.09-2.29 1.1-1.42-2.18 3.69-2.72 2.38-4.49-1.38 1.96-5.21-1.14-3.76 2.66 1.18 2.92 3.74 5.78 2.02 8.76-1.03 1.18-3.67 3.06-0.68 4.08 3.18 2.17-0.33 6.37-0.9 9.27-2.32 3.75-5.74 0.02-5.84-2.99-2.27-0.42-2.48 4.11-5.47 2.37-4.1-0.9-7.552-4.41-11.989-3.47-2.259 1.63-7.325 0.2-3.718-2.53 2.757 0.16 3.358-1.78 4.61-3.94 1.087 0.6 1.905 2.46 3.528 0.58 1.729-1.8 2.089 0.21 3.129 0.77 0.54-3.48 0.96 0.33 1.52 0.69 2.82-3.18-2.94-5.05-2.1-8.59 1.12-5.02-5.219-1.52-5.833 1.07 1.378 1.05 4.853 3.23 1.17 4.12-3.151 1.48-2.465-3.52-4.568-2.86 2.727 2.31-1.533 8.23-4.122 5.13-2.134 0.67 2.533 3.88-0.918 3.41-3.417-2.42-0.083-6.55 1.749-8.89 1.687-4.48 7.15-4.17 9.678-7.55 1.184-1.46 5.784-1.78 5.204-3.09-5.073 1.43-9.835 3.97-14.098 6.97-2.757 1.48-2.822-4.97-4.455-0.91 0.095 1.93 2.762 0.29 2.065 2.8-0.77 3.92-2.922 7.45-3.192 11.53-0.515 3.77 0.608 7.22 2.119 10.62 1.756 1.95 3.9 4.74 0.221 6.14 3.377 0.87 8.035 3.15 11.94 4.4 1.89-0.1-0.196 4.68 1.64 1.52 0.64-5.98 7.41 1.55 10.18-1.63 1.89-1.51 3.09 1.77 0.6 1.29 0.08 2.44-2.52 0.97-3.28 3.41-1.86 3.8 3.29-2.27 5.39-1.93 4.3 0.46-2.26 7.69-2.22 5.4 2.35-3.06-2.43-1.77-2.44 0.52-4.23 0.12-1.28-4.77-3.35-6.56-2.27-2.31-1.24 1.4-2.64 1.81 0.68 1.38 4.03-0.22 1.43 1.97-0.55 1-2.04 4.94-1.59 1.56-2.41-2.14-4.16-5.68-7.059-5.93-0.588-1.95-4.164-1.41-1.448 0 4.105 2.86 6.647 7.71 11.257 9.84 1.03-0.2 0.52-1.51 1.78 0.03-0.13 2.92 0.14 6.4 3.36 7.72 2.42-0.08 4.47 5.41 4.35 0.65-1.02-1.78 3.01-0.93 0.24-2.41-3.97 2.68-8.83-4.62-5.09-6.76 2.72 1.62 3.86 5.64 7.6 5.27 2.05 2.41 4.7 0.79 7 1.35 1.65 1.61 1.93 4.71 3.64 2.52-1.23 2.6 3.28 7.25 2.79 7.46-0.79-1.76-5.12-4.85-2.81-1.12 1.67 3.51 6.48 2.11 3.61-1.47-1.2-0.94-3.54-5.49-0.65-2.62 1.84 3.2 4.58 4.82 5.83 7.93 1.78 2.49 5.52 0.25 5.64 3.27 2.04 2 4.71-0.84 4.29-1.73 2.97 1.46 1.38 5.63-1.85 3.66-1.84-0.38-6.35 1.21-1.91 1.48 2.97 0.12 6.88-0.62 8.58 1.33 3.13-0.66 5.14 4.4 7.52 0.19 2.25-1.66 4.35 2.12 6.51 3.07 0.88 1.03 1.31 6 2.24 2.4 1.1-4 5.7 1.15 8.45 0.26 1.87 2.12-4.41 0.63-3.48 3.03 4.74-1.83 3.88 4.26 7.28 5.82 2.64 1.37 3.98 3.21 4.78 5.76 3.58 1.19 1.46 7.71 6.01 8.41 1.26 3.66 6.61 1.61 2.88-1.49-2.44-3.52-4.44-7.38-6.78-10.94-1.83-1.19-2.1-3.72 0.29-1.63 3.15 3.1 4.58 7.49 7.59 10.72 1.18 3.7 4.28 6.33 8.24 5.19 1.26-0.68 5.35 2.78 3.15 0.11zm-5.35-2.45c-2.67-0.09-1.11-4.16-1.94-3.43-4.33 0.35-4.87-5.58-7.78-7.79-1.32-0.97-5.61-6.41-1.86-5.04 4.64 2.25 5.51 7.84 8.96 11.18-0.37-2.13 2.96 1.44 4.85 1.84-5.06-2.27 3.27 6.69-0.95 4.08l-0.64-0.42-0.64-0.42zm2.74-1.18c0.76-3.96 2.47 3.46 0 0zm-16.42-18.41c-1.84-3.32 2.93-0.83 1.38 1.29-0.6-0.22-0.96-0.85-1.38-1.29zm-47.37-18.62c-3.32-4.12 4.52 1.07 1.3 1.25-0.5-0.35-0.9-0.8-1.3-1.25zm-0.11-3.76c-3.28-1.93-6.66-3.71-10.04-5.26-3.67-2.26-7.47-4.78-9.7-8.56 1.19-1.64 4.15 2.72 6.1 3.08 1.76 0.51 3.25 5.16 2.59 1.29-1.13-4.07-5.9-4.7-8.73-7.18-2.34-0.55-5.51-6.12-1.2-3.58 2.5 1.81 8.36 7.28 8.95 1.08-0.14-1.89 0.97-3.84 1.74-1.04 1.05-2.18-0.14-8.86 4.6-6.87 2.24-0.62-1.21-4.09-2.98-2.28-3.19 1.98-5.11-1.05-7.71-1.84-3.55 0.55 4.17 6.04 0.16 5.33-3.17-2.53 1.09 2.27 0.18 2.98-3.47 3.33-8.38-0.34-11.26-2.67-2.71-0.53-5.94-0.22-6.98-3-1.81-0.16-7.165-0.65-3.42-2.95 3.89-0.69 7.15 3.32 10.25 4.62 1.92 0.39 5.34 0.41 6.49 3.09 3.69-1.91 1.78-6.17 2.65-9.16 0.53-1.64-2.25-3.62 0.09-2.74 2-4.52 1.5 3.94 5.09 2.76 2.48 1.04 6.06-5.32 6.71-1.33-0.33 2.21-2.67 4.33 0.82 3.67 3.39 0.96 1.56 5.09 3.9 5.97 1.45 4.38-2.54 8.22-6.91 7.15-3.95-0.44-4.32 5.04-1.39 5.48-1.3 1.41 2.03 2.12 0.66 3.57 0.52-2.3 5.76-0.82 3.64-0.49-3.37-1.18 0.51 5.63 1.84 1.94-0.21 3.42 4.28-1.98 2.42 1.42-1.82 1.53 1.14 4.46 0.58 1.24 2.11-0.92 4.76 6.39 0.86 4.28zm-6.1-21.21c3-3.4-3.53-7.94-2.57-2.3 0.46 1.2 2.25 6.49 2.57 2.3zm-19.46 9.07c-3.26-2.89 3.06-5.05 3.51-1.18 1.46 1.78 0.36 4.46-0.97 1.45-0.7-1.5-2.07-5.4-1.28-1.61 0.52 1.85 0.11 4.69-1.26 1.34zm35.96 0.43c0.58-3.28 2.05 0.67 1.83 0.12 1.13-3.44-2.8-6.61-2.07-10.38-1.07-2.58 0.72-5 1.67-6.69-3.66 0.47 3.25-3.27 2.88 0.58 0.17 1.67 0.28 3.93 1.48 1.03 0.58-3.34 2.51-0.35 1.04 1.33-1.22 3.55 0.99 7.58 0.24 10.82-3.19-2.08-1.56-6.22-3.49-9.02-1.3-2.95-1.27 1.2-2.49 1.99 3.98 1.21 1.77 6.7 2.13 9.8-0.37 1.57-3.4 3.07-3.22 0.42zm32.16-3.05c-0.47-3.31-3.15-5.95-3.06-9.29 0.07-1.62-0.11-5.31 0.6-1.79 0.95 4.33 3.72 8.05 4.17 12.5-0.25 2.57-1.34-1.04-1.71-1.42zm-58.56-4.28c1.53-3.11 2.79 2.74 0 0zm22.29-5.92c-0.19-1.6 0.9-8.09-1.77-4.33 0.74-2.15-0.49-5.46-2.99-4.2-3.91 0.2-1.32-7.03-0.14-2.24 0.51 3.18 3.09-2.68 0.45-3.04 0.38-0.44 2.67-2.38 0.18-1.63-1.82 1.6-4.74-0.37-4.44 1.61-4.01-0.48-0.1-6.57-3.59-5.99-0.74 2.5 0.8 9.06-3.78 7.82-2.49-1.92 2.56-4.91-1.39-4.33-2.41 1.21 0.59 8.41-3.81 4.84-0.99-1.16 2.16-1.03-0.1-2.26-1.93-1.31-7.38 1.05-3.58-2.28 1.73-0.56 6.43-1.6 2.36-2.72-3.16 0.58-0.99-3.76 0.14-0.65 3.08 1.97 4.59-6.44 0.64-3.63-2.81 1.16-2.83-4.97-0.37-1.74 1.59-3.57 5.4-0.56 6.81 0.02 3.14 2.53-0.27-1.4-0.31-2.79 1.44 0.05 4.89-1.94 2.12-3.12-1.6 3.69-2.64-3.36-4.85-0.51 0.45 1.39 2.02 3.73-0.21 1.64-2.16 0.44-5.55 3.41-5.68-0.86-0.56-2.99 1.59-7.74 3.31-9.06 1.47 2-0.16 5.42-1.44 5.06 1.98 1 4.76-1.06 6.02 1.81 2.82 1.46 6.02-1.03 4.4-2.72 4.31-1.16 5.71 4.68 7.3 7.58 0.87 3.74 4.35 5.4 4.75 8.72 2.72 0.7 1.89-5.64-0.61-5.78 2.12 0.22 5.68-3.41 6.74 0.68 0.86 4.43 4.01 8.74 3.17 13.6-2.09 1.78-5.64 6.89-6.91 2.09-1.85-1.14-4.81-5.71-0.77-3.25 4.48 0.49 3.74-5.17 4.38-8.07 0.68-2.1-1.92-3.15-1.81-0.7-2.04 1.37-2.35 2.7-0.17 3.29-0.13 2.02-2.09 2.21-1.52 4.24-3.33 0-1.87-6.64-5.14-8.23-2.36-0.58 0.79 4.21 0.57 5.83 0.92 4.96 3.09 9.62 3.7 14.63 0.75 2.07-1.1 5.05-1.63 1.42l-0.03-0.75zm6.83-12.42c0.12-1.44 0.36-4.6-0.55-1.42-0.16 2.45-4.89 4.36-0.78 5.15 1.32-0.66 1.41-2.44 1.33-3.73zm-16.31-3.97c0.67-1.91 5.99 0.94 4.03-2.71 2-3.25 0.32-6.49-1.47-9.21-0.41-1.8-2.37-7.3-3.55-5.86-1.07 1.96-1.08 3.48 0.89 4.54 1 2.04-2.76 5.69-1.4 1.49-1.14-2.26-3.42 3.08-1.75 4.12-0.41 3.23 3.36 0.55 3.86 0.5 2.3 2.28-3.27 1.96-0.88 3.77 0.11 1.13-1.03 5.64 0.59 3.87l-0.32-0.51zm1.93-4.68c-0.06-2.41-1.42-7.61-1.22-8.15 0.94 2.76 4.32 6.78 1.93 9.31-0.58 0-0.75-0.71-0.71-1.16zm-6.69 1.04c1.86-4.3-7.36-3.14-3.3 0.16-0.47 2.43 1.46 3.53 2.83 1.14l0.3-0.63 0.17-0.67zm-4.63-11.74c1.93-1.5-2.05-3.16-0.47-0.67-0.9 2.07-6.14-1.56-3.7 2.31 1.5 0.78 3.2-0.58 4.17-1.64zm-31.961 29.09c-1.644-1.29-8.052-0.99-3.976-3.93 2.5 1.65 5.898 1.48 7.413 3.46 4.424 1.97-2.707 2.54-3.437 0.47zm15.291-1.56c-1.33-1.11-7.16-3.32-3.24-3.63 1.26 1.74 2.61 1.76 2.64-0.22 3.48 0.41 6.73-2.27 9.98 0.42-1.55 1.13-3.6 2.68-5.23 4.38-1.43 0.47-2.78-0.64-4.15-0.95zm13.15-0.01c0.76-3.96 2.47 3.46 0 0zm30.5-2.56c1.33-3.38 2.72 3.9 0.13 0.72-0.11-0.22-0.07-0.48-0.13-0.72zm-58.949-0.88c-1.433-1.15-4.33-0.72-4.468-2.49-2.735 0.88-6.549-5.13-1.832-2.99 3.371 1.69 6.376 4.96 10.463 4.44 0.966-1.02 5.586-3.01 3.676-0.29-2.36 1.38-5.375 4.41-7.839 1.33zm40.549-0.39c1.53-3.11 2.79 2.74 0 0zm-28.58-0.97c-3.52-0.36-5.45-6.39-0.41-4.91 1.61-0.29 6.57 0.45 5.28 1.41-2.09-0.69-5.28 2.26-1.35 1.53 4.74-0.44-2.75 3.11-3.52 1.97zm0.34-2.7c0.29-4.04-2.95 2.95-0.32 0.73l0.32-0.73zm-10.109 1.73c-2.857-0.73-2.417-4.77-4.781-6.14-0.135-1.67 3.309 2.21 2.296-0.96 1.756-1.77 3.607 1.8 1.388 2.7 0.973 2.38 4.036 0.27 4.216-0.66 2.75 1.41-0.38 7.19-3.119 5.06zm19.749-0.67c1.02-3.08 3.3 0.81 0.54 0.25l-0.54-0.25zm18.6-0.39c1.53-3.11 2.79 2.74 0 0zm-45.599-3.17c-1.696-0.68-7.103-3.38-3.608-4.61 1.817 1.23 5.739 3.27 5.097 5.5-0.648 0.4-1.425-0.21-1.489-0.89zm74.249 0.34c-1.84-3.1-6.42-6.46-4.26-10.42 1.85-0.79 2.43 3.14 0.25 2.94 1.93 1.41 2.97 5.04 6.3 3.45-0.27 0.76-1.15 3.06-0.89 4.52-0.52 0.05-0.96-0.27-1.4-0.49zm-1.17-7.76c0.21-3.5 1.27 2.22 0.03 0.29l-0.02-0.21-0.01-0.08zm-21.04-6.51c-2.87-2.1 1.69-4.55 1.41-0.84 0.18 2.1 0.05 4.15-1.41 0.84zm45.96 97.32c-3.62-2.86-5.5-7.11-8.04-10.78-2.42-2.61-2.62-9.59-6.85-9.14-2.5 3.26 2.35 5.71 3.24 8.71 2.84 4.6 6.12 9.49 11.25 11.72 0.3-0.04 0.35-0.24 0.4-0.51zm-80.7-4.86c-0.33-1.72-4.13-3.31-1.94-0.56 0.46 1.96 4.66 4.05 2.05 0.72l-0.11-0.16zm21.19-0.61c-0.51-1.86-6.22-6.4-4.61-1.84 0.75 1.1 5.72 2.7 3.12 3.4-2.13-0.08 2.63 2.3 1.66-0.64 0.05-0.32-0.12-0.61-0.17-0.92zm36.88-3.17c-3.45-3.37-5.88-7.89-10.11-10.38-0.83-2.2-6.08-5.88-5.22-1.26 2.04 3.78 5.97 6.18 9.15 8.97 1.83 0.53 2.02 3.55-0.13 1.44-0.67-1.32-5.01-3.54-2.83-0.61 2.84 2.63 7.64 2.27 9.41 5.78 2.43 1.08 3.59-1.41 1.04-2.49-0.43-0.49-0.87-0.97-1.31-1.45zm9.54-1c-2.29-2.88-2.96-8.34-7.54-8.3-1.59-0.74-6.05-1.61-2.91 0.95 3.38 3.68 6.92 7.27 9.79 11.38 2.68 2.78 3.18-0.66 1.47-2.56-0.25-0.5-0.52-0.99-0.81-1.47zm-88.411 2.26c2.294-2.34-3.439-6.11-2.276-1.59-1.307 1.94-0.078 5.29 1.931 2.34l0.345-0.75zm52.501-0.01c-0.62-2.29-2.41-1.58-0.82 0.4 1.08 2.3 2.06 1.43 0.82-0.4zm-3.33-1.46c-1.92-3.22-0.35 3.81 0 0zm-52.669-0.71c-0.823-0.63-4.453-1.55-3.689-1.31 0.618 0.99 3.275 4.07 3.689 1.31zm30.069-1.83c3 0.36 1.28-3.48-0.65-1.34-1.76-0.61-6.14 3.95-3.21 3.23 1.05-0.99 2.37-1.84 3.86-1.89zm-30.319-1.12c0.042-2.21 2.557-1.76 2.371-0.18 4.079 0.5 0.365-2.7-0.398-4.18-0.969-2.37 2.142-8.14 2.521-3.23-1.238 1.81 0.439 7.23 1.593 3.94 2.203-0.84-1.673-1.45 0.42-3.16 0.972-2.36-2.215-3.77-0.925-6.48 0.033-1.68-4.035-3.69-3.133-0.74-1.494-0.26-6.458 0.31-4.928 2.54 1.539 0.17 5.848-2.21 6.115-0.36-4.536 0.41-2.94 5.22-4.703 7.87-1.755 0.17-3.391 0.05-1.12 1.67 3.681 3.02-4.457-1.27-1.413 1.63 0.647 0.53 3.718 2.94 3.6 0.68zm64.799-1.13c-0.88-2-4.84-4.33-6.16-4.07 0.8 1.87 2.01 3.53 1.62 5.57 1.41 0.97 2.91-2.67 4.54-1.5zm-40.11-0.17c-1.41-1.95-3.45 0.02-0.83 0.8 1.27 1.03 3.19 0.51 0.83-0.8zm18.56-0.08c-2.18-3.85-2.75 3.04 0.58 1.33 0.28-0.5-0.31-1-0.58-1.33zm9.78-0.14c3.43-1.53 0.8-7.69-1.47-2.88 1.63 0.34 3.05 1.19 0.64 2.28-2.6 2.37-1.44 2.86 0.83 0.6zm18.22 0.26c-0.41-1.88-4.13-2.9-1.81-0.31 0.35 0.39 1.65 1.41 1.81 0.31zm-40.81-2.3c-2.92-1.01-0.98 1.92 0.42 0.26l-0.16-0.22-0.26-0.04zm90.37-1.26c-1.47-1.44-0.39-4.34-2.61-4.13-1.5-2.92-4.95-4.88-5.07-7.47-1.67-2.54-5.17-0.34-2.53 1.97 2.7 3.21 6.34 5.61 8.39 9.37 0.37 1.46 4.41 3.36 1.82 0.26zm-77.56-1.62c-1.33-3.38-2.71 3.9-0.13 0.72 0.11-0.22 0.08-0.48 0.13-0.72zm-5.87-1.71c-2.92-1.69 2.47 4.34 0 0zm12.37 1.27c-3.35-3.81-0.37 3.94 0 0zm15.47-2.86c0.83-4.71-3.81 2.98-2.65-1.31-2.17-3.47 3.63-3.69 5.4-3.24-3.2 4.37 5.71-0.46 1.66-2.53-1.93-0.4-6.43-1.8-4.93 1.87-3.25 1.84-6.46-1.04-8.05-3.59-0.34 1.31-0.69 5.21 1.6 2.96-0.36 3.63 2.88 5.34 4.35 8.45 1.73 1.58 2.77-1.19 2.62-2.61zm-68.969 1.86c-1.662-3.23-3.462 2.09-0.276 0.71 0.174-0.21 0.251-0.44 0.276-0.71zm91.199-3.92c-2.14-1.83-2.64 6.19-0.33 2.1 0.36-0.62 0.58-1.39 0.33-2.1zm-44.59 0.19c-1.96 2.02 1.29 3.36 0 0zm-48.838-0.77c0.536-2.81-3.773-2.79-1.647-0.03 0.85 2 2.214 3.75 1.647 0.03zm-32.871-0.12c-1.593-2.5-1.297-10.5-5.543-8.26 0.293 1.56 5.402 5.71 1.758 5.04-0.886-1.78-5.763-2.29-2.954 0.4 2.888-0.93 6.085 5.94 7.22 3.45l-0.481-0.63zm91.979 0.87c-1.23-2.09 1.56-2.86 1.96-3.29-0.48-2.37-7.86-1-3.76 0.19 0.11 0.99-0.09 5.76 1.8 3.1zm-21.88-1.31c-1.67-2.03-2.3 3.04-0.08 0.41 0.03-0.13 0.06-0.27 0.08-0.41zm3.67-0.4c-1.92-3.22-0.35 3.81 0 0zm46.32-1.57c-1.43-1.62-3.77-0.36-1.08 0.62 0.4 1.83 0.7 2.8 2 0.7 0.18-0.63-0.46-1.07-0.92-1.32zm-95.989-0.03c-1.543-3.12-2.007 3.93-0.065 0.41l0.033-0.21 0.032-0.2zm16.119-1.19c-0.997-2.63 1.728-3.22 2.759-1.23 2.46 1.03 3.652-0.99 3.025-2.82 2.222-3.28-2.349 1.56-3.98 0.19-2.882-0.85-5.097 0.84-5.303 3.49-2.118-0.05-2.637 1.02-0.333 1.5 1.297 0.17 3.16 0.28 3.832-1.13zm29.01-0.5c2.03-3.32-4.33 3.79-0.56 0.68 0.19-0.22 0.38-0.45 0.56-0.68zm4.3-0.14c1.49-2.4-5.31-3.4-1.75-1.68-0.48 1.51 0.12 3.92 1.75 1.68zm-43.824-3.84c-1.957 2.02 1.297 3.36 0 0zm56.404-1.76c-2.57-3.27-8.17-4.9-9.11-8.84 2.31 1.57 6.16 1.29 5.35-2.36-2.52 0.19-0.37-5.53-3.44-3.01-0.91 1.28 1-3.73-1.25-1.47-4.7 0.53 1.37 4.38 2.63 6.05 0.36 2.84-6.06-3.37-5.88 0.74 1.85 1.51 0.15 3.72 2.61 3.63 0.98 1.45 4.42 3.3 4.35 3.36-4.27 2.12 2.41 0.02 2.67 2.93 2.14 0.76 4.09 1.91 6.05 3.22-0.92-1.72-2.6-2.92-3.98-4.25zm-71.009 2.55c-0.085-2.55-7.122-5.03-3.48-1.08 0.698 0.76 2.963 3.39 3.48 1.08zm8.01-1.55c-1.64-3.13-4.639 2.33-0.887 1.49 1.141 0.39 2.152-0.69 0.887-1.49zm-16.343-0.97c-1.914-3.22-0.353 3.81 0 0zm29.791-0.61c-2.423-2.77-0.511 4.38 0.075 0.22l-0.069-0.2-0.006-0.02zm5.042 1.07c-2.188-3.16-3.021 2.91 0.068 0.56l0.051-0.28-0.119-0.28zm67.109-5.14c-1.36-2.9-4.8-4.25-5.26-7.61-0.82-2.03-5.54-2.86-2.97 0.12 2.28 2.62 3.21 6.22 6.21 8.28 0.91 1.5 4.88 7.27 3.63 2.56-0.42-1.17-1.05-2.25-1.61-3.35zm39.39 5.13c-1.39-2.35-6.98-6.37-8.09-3.25 1.69 1.79 6.03 5.25 8.09 3.25zm-146.03-2.03c-0.232-2.06-3.128-5.37-4.145-1.87-0.447 1.58 7.221 5.02 4.145 1.87zm42.779 0.79c-0.707-1.11-2.333-3.35 0.25-2.94-0.863-1.91-5.199-2.07-2.801 0.59-1.174 1.52 2.97 5.05 2.551 2.35zm32.839-1.49c-1.96-1.3-7.16-1.3-7.42 1.44 2.97-1.73 5.19 2.7 7.33-0.97l0.09-0.47zm-58.401 0.06c-2.914-1.01-0.974 1.92 0.422 0.26l-0.159-0.22-0.263-0.04zm28.812-1.26c-0.237-3.62-3.709 0.8-0.611 0.87l0.439-0.34 0.172-0.53zm21.499-0.06c-1.62-2.74-4.66 1.02-0.95 1.01 0.54 0.08 1.42-0.36 0.95-1.01zm-74.315-2.22c-3.042-1.77 1.41 4.28 0.418 0.5-0.139-0.16-0.279-0.33-0.418-0.5zm10.316 1.22c-0.864-1.8-4.824-0.45-1.528 0.2 0.426-0.07 3.015 1.8 1.528-0.2zm19.307-1.53c-2.441 0.71-0.967 3.88 0.068 0.66l0.052-0.34-0.12-0.32zm120.54 0.28c-2.53-2.78-6.43-7.12-9.79-7.03 2.4 2.66 5.26 4.84 7.15 7.99 0.78 1.44 3.33 0.59 2.64-0.96zm-156.24-2.08c-1.462-2.72-3.695-0.36-1.839 1.61 1.394 2.75 5.243 0 1.839-1.61zm23.683 1.92c-0.955-0.71-5.051-3.84-2.626-0.82-0.307 2.78 0.965 1.93 2.626 0.82zm60.455 0.75c-2.48-0.91-2.85 1.13-0.15 0.49 0.21 0.04 0.79-0.52 0.15-0.49zm-71.653-2.49c0.128-0.93-3.212-0.13-1.625-2.34 0.355-1.64-4.003-1.81-3.566-1.68-0.202 1.84 5.104 6.02 1.066 3.13-0.873-1.08-6.82-4.33-3.864-1.11 2.039 1.7 5.528 4.61 7.989 2zm30.766-0.35c-0.416-2.35 6.04-3.34 3.848-0.45 1.397 1.29 8.319 0.9 4.34-0.85-2.441-2.3-9.313-2.84-9.676 0.99 0.244 0.91 2.654 3.06 1.488 0.31zm40.637 1.11c-0.99-2.11-3.85-0.31-1.02 0.36 0.28 0.1 1.02 0.14 1.02-0.36zm49.81-1.55c-0.81-3.31-4.55 3.81-0.82 1.18 0.36-0.32 0.66-0.72 0.82-1.18zm-108.21-0.67c-1.384-2.25 3.733 0.22 1.423-1.87-1.484-2.78-3.966-0.62-2.874 1.7-0.433 1.37-3.177-2.54-1.822 0.65 0.77 1.24 4.108 1.99 3.273-0.48zm6.404 0.64c-1.274-1.61-2.312-3.55 0.297-2.73-1.31-1.1-4.574-4.13-2.979-4.86 0.865 2.22 6.147 2.74 2.412-0.07-1.188-0.98-4.118-2.91-1.917-3.38-1.207-1.43-5.62-0.39-5.307-2.78 2.086 1.09 2.798-0.9 0.335-0.66-3.298 0.45-6.096-2.48-7.696-3.99-2.054-1.06-6.288-2.7-2.843-5.2 0.728-2.09-1.16-1.81-2.116-0.8 0.105-1.69 0.339-6.82-2.186-3.56-3.254 4.3-6.979-2.03-8.053-5.02-1.354-1.41-0.835-6.78 0.682-2.99-0.227 3.34 5.545 4.38 5.321 0.47-3.949 0.06-7.075-3.5-7.94-6.92-1.825-0.35 1.057 2.31-1.661 0.44-2.326-1.29-5.068-1.36-3.733 1.95 0.17 2.03 1.246 6.55 2.787 6.25-0.225-1.58-2.609-5.3-2.178-5.26 2.61 2.18 3.133 5.93 5.627 7.9 1.69 1.63 0.414 5.45 3.52 4.38 0.139 3.09 3.353 5.23 3.188 8.6 0.634 3.04 1.55-5.23 3.826-2.08 3.53 1.02 5.255 5.46 7.046 7.13-0.654-4.12 3.789 1.01 5.509 1.55 1.554 1.38 6.118 3.55 1.778 3.45-3.597 1.66 3.397 0.02 2.959 3.21 0.65 1.43 0.495 7.5 3.322 4.97zm-25.558-23.59c-2.275-1.87 3.706-1.84 4.133-2.87 1.559 0.99 0.528 6.08-0.91 2.78-2.025-1.36-0.324 3.48-2.457 0.69-0.258-0.2-0.513-0.4-0.766-0.6zm72.607 22.81c-0.88-1.36-3.33-5.87-4.33-4.2 0.89 1.72 4.27 6.12 4.71 4.87l-0.38-0.67zm53.08-0.94c2.17-2.17-3.31 0.11-1.78-2.82-0.92-1.63-3.15-3.84-1.9-4.57-1.11-2.9-6.53-1.65-3.41 1.3 2.08 1.87 3.76 9.48 7.09 6.09zm-111.45-1.02c-0.942-1.39-8.265-1.74-4.549 0.18 1.608-0.91 5.637 2.6 4.549-0.18zm-21.085-0.87c-2.258-1.64-3.137-8.63 1.015-5.75 0.239 2.16 2.711 6.75 3.797 4.91-3.58-0.98 0.767-5.86-2.417-5.45-1.807-1.49-3.306-1.82-2.256-4.48 0.078-3.68 4.4 2.61 3.443-1.21-1.307-2.64-7.645-0.54-6.404 2.38-0.476-1.77-3.942-3.03-3.136-0.19 1.789 0.37 5.633 0.48 3.477 2.81-1.433 2.54-0.805 8.3 2.43 8.21l0.124-0.61-0.073-0.62zm44.85 0.05c2.01-2.47-3.78-3.17-4.505-5.32-1.202 1.26 2.076 3.21 0.882 5.33 0.104 2.6 2.619 0.79 3.623-0.01zm41.857-0.87c-0.47-3.09-5.41-0.84-1.84 0.68 1.66 1.32 4.69 2.41 1.84-0.68zm-47.299 0.12c-0.617-3.2-6.527 0.31-1.819 0.66 0.868 0.31 2.207 1.08 1.819-0.66zm-24-1.41c-3.557 0.99-5.91-1.91-6.871-4.69-1.756-0.89-0.564 2.15-2.529 1.83 2.26 1.29 4.896 4.62 8.254 3.72 0.457-0.16 0.867-0.46 1.146-0.86zm-2.274-3.78c-2.04-3.04-3.386-0.48-1.093 1.32 1.969 1.46 3.602 0.19 1.093-1.32zm101.27 0.49c0.03-4.25-7.92-1.26-3.14 1.06 1.05 0.45 2.99 0.45 3.14-1.06zm-120.58-1.37c-2.388-3.64-1.176 3.58 0.376 1.22-0.07-0.43-0.245-0.82-0.376-1.22zm42.842-1.97c2.52 1.87-2.041-4.45-3.055-4.29 0.64 1.68-0.612 4.99-1.719 1.9-1.672-2.86-3.405 1.54-0.557 1.43 1.138 2.65 2.313 1.52 3.231-0.3 0.881-0.07 1.462 0.8 2.1 1.26zm110.82-2.53c-0.72-2.01-6.22-5.13-6.13-3.03 1.9 1.21 4.42 6.96 6.44 3.69l-0.31-0.66zm-39.58-2.15c-3.35-3.81-0.37 3.94 0 0zm-112.64-4.36c-1.535-1.51 1.31 3.48-1.359 1.72-3.121 0.1 0.527 1.72 1.005 2.15 0.843-0.69 1.893-3.36 0.354-3.87zm3.263 0.69c-2.684-3.39 1.448 5.46 0.288 0.55-0.079-0.19-0.192-0.37-0.288-0.55zm165.49 1.2c0.12-3.09-2.92-1.56-1.09 0.59 0.68 1.32 1.63 0.81 1.09-0.59zm-143-5.26c-1.957 2.02 1.297 3.36 0 0zm5.119 1.4c-1.293-3.09-5.157 0.71-1.168 0.98 0.566 0.11 1.482-0.24 1.168-0.98zm4.276 0.94c-0.993-2.11-3.85-0.31-1.026 0.36 0.289 0.1 1.021 0.14 1.026-0.36zm-39-1.61c-2.168-3.7-1.267 2.89 0 0zm43.443-0.94c2.813-2.07-0.645-5.28-1.94-1.62-1.309 2.1-0.612-1.53-1.669 0.66-1.471 2.91 2.774 3.68 3.609 0.96zm-17.386-1.49c0.927-3.02-4.957-4.44-3.569-1.21 0.636 1.24 6.245 5.81 3.569 1.21zm32.61 0.97c-1.914-3.22-0.353 3.81 0 0zm-23.359-1.47c-0.786-2.77 5.294-0.47 3.259-4.22 0.305-2.56-3.721-3.33-2.329-0.14-4.322-1.49-2.645 7.49-0.743 5.13-0.062-0.26-0.125-0.51-0.187-0.77zm13.089 1.1c-1.527-3.11-2.78 2.74 0 0zm96.302-8.2c0.77-1.68-1.51-5.71-2.23-2.16-2.34-1.92-6.15-0.38-3.98 2.67 2.23 1.1 2.13-0.41 0.75-1.4 1.16-1.65 3.48 3.54 2.79 5.16 2.05 3.39 2.84-3.16 2.67-4.27zm18.3 5.03c-2.17-3.7-1.27 2.89 0 0zm-144.63-0.78c-0.977-2.53-4.457 1.18-0.967 0.71l0.371-0.16 0.596-0.55zm12.994-0.72c-1.115-2.81-2.875-0.02-0.448 1.01 1.076 1.21 0.769-0.39 0.448-1.01zm134.21-2.21c-1.77-0.16-3.13-2.74-0.47-1.63 1.58-0.09 6.54 4.14 4.98 0.53-2.56-1.43-7.19-4.36-9.41-2.44 0.93 2.43 3.84 5.38 5.21 6.73 1.88-1.13 2.13-2.91-0.31-3.19zm-144.49-1.14c-2.82-5.29 7.485-0.07 7.138-5.24 1.307-2.44 3.599-3.78 3.037-7 0.627-0.45 1.649 4.62 1.645 0.87 0.64-4.56-5.01-2.89-4.19 0.61-0.378 3.36-4.875 0.62-4.215-2.39-0.322-4.17 4.402-0.04 6.12-3.11 2.086-1.87 3.216 3.69 3.2-0.18 0.093-2.84 0.96-6.93-0.233-9.1-0.365 1.7-3.042 4.9-3.253 1.36 1.513-1.33 1.695-6.12-0.842-3.26-2.158 3.16 0.981 7.46 2.682 8.33-1.758 3.58-7.094 1.82-4.974-2.2-0.015-3.71-7.35-0.39-2.894-0.54 4.436 2.6-4.586 3.28-4.936-0.28-1.807-4.26-0.659 4.07 1.363 4.87 0.84 0.42 1.331-2.9 3.197-0.6 2.237 2.76-5.221 5.3-2.373 6.91 1.329-0.38 2.684-0.79 2.125 1.43-0.438 1.73-0.211 3.5 0.739 0.89 0.686 1.43 2.364 2.94 2.589 4.69-1.331 0.07-2.975-1.75-4.67-1.92-0.857-1.15-2.505-6.26-3.472-3.61 0.998 3.21-2.744 4.5-3.568 1.06-0.221-2.49 3.216-5.54-0.507-5.99-0.194-2.23 1.146-7.61-2.645-5.78-2.469-2.77 1.183-7.97 2.468-2.66 2.418 2.77 1.012 7.77 4.515 9.41 1.522-2.28-1.463-4.67-1.762-3.74 0.652-3.72-1.767-7.14-1.526-10.87 0.841-1.72-1.034-7.52-2.058-3.44 0.275 1.3-0.28 5.96-1.485 2.99-1.303-3.4-4.953-0.42-5.128 1.97-1.032 1.11-1.753 5.86 0.511 2.8-0.15 2.61 4.631 1.1 2.087 3.39 1.336 2.51 3.627 7.22-1.166 7.73-3.992 3.32-3.933-4.89-4.639-7.51-1.929-4.21-1.489 2.42-0.945 3.87-0.837 4.74 5.792 8.36 8.815 4.46 2.069-2.62 1.291 3.93 2.556 4.81 0.85 2.31 3.509 4.48 4.606 2.22 0.159 1.98 0.291 8.2 2.721 6.28-0.126-0.54-0.383-1.04-0.633-1.53zm-8.002-16.57c0.21-3.5 1.269 2.22 0.029 0.29l-0.021-0.21-0.008-0.08zm77.81 6.78c-1.93-1.76 4.17-0.05 1.46-2.27-3.27-1.75 4.41-1.3 1.17-3.25-2.07-0.49-2.05 1.51-3.53-0.26-1.74 0.89-6.31 4.14-5.52-0.14 2.69-0.44 6.74-0.93 8.14-2.51 0.11-1.14 1.88-3.78-0.49-3.52 1.29 3.55-3.63 1.36-0.57-0.38 2.04-0.08 4.9-0.76 2.02-2.93-1.92-2.67-2.13-7.44-6.36-7.57-0.67 1.82 0.39 5.04 1.37 7.1 1.15-0.47 4.16-1.66 2.82 1.1-2.44 3.94-5.62-5.49-5.74 0.04 2.34 0.51-0.6 5.56 2.16 3.39 0.21-3.17 2.77-0.6 0.89 1.18-1.65 3.9-4.44 1.19-3.98-1.82-1.1-3.1-5.48-0.15-2.1 1.63 1.46 0.94 2.73 3.67-0.26 2.59-0.81 3.29-4.24 3.53-6.65 2.02-2.53 1.97 2.87 4.54 2.74 3.25-0.77 2.92 3.14 2.59 3.04 0.59 1.09 1.11 0.62 4.51 3.01 2.13 2.67-0.97-0.45-1.42 0.15-1.53 2.42-1.94 6.36-0.43 5.04 2.91 1.04 1.11 2.69-1.04 1.19-1.75zm63.11 2.26c-0.64-1.44-4.36-3.5-1.66-0.8 0.3 0.24 1.48 1.92 1.66 0.8zm8.5-0.62c-2-3.04-2.46 2.09 0.14 0.71 0.08-0.26-0.03-0.48-0.14-0.71zm-160.5-0.89c-0.344-2.12-4.163-1.81-1.518-0.05 0.385 0.6 1.747 1.53 1.518 0.05zm160.6-2.26c-1-0.88-3.48-0.63-4.3-2.33-0.57 1.63 3.35 5.56 4.3 2.33zm-106.38-5.65c-2.095-2.1 3.042-7.92-1.961-7.05-3.107 2.46 1.707 6.64 0.865 9.01 2.227 3.41 1.704-0.15 1.096-1.96zm-8.767-3.08c-4.063-1.06-1.083 9.39-0.216 2.98 0.247-0.97 0.49-2 0.216-2.98zm10.731 1.66c-2.321-0.35 1.062 5.79 0.61 1.3-0.069-0.48-0.271-0.95-0.61-1.3zm-50.182-0.61c0.683-4.25-4.858-1.85-2.238 1.16 0.407 3.35 2.765 0.66 2.238-1.16zm29.656-3.44c-1.389 0.63 0.204 5.47 0.213 1.66 0.019-0.56-0.022-1.13-0.213-1.66zm30.344 2.71c-2.75-2.13-2.344 3.89 0 0zm-27.395-3.17c-1.957 2.02 1.297 3.36 0 0zm10.592-0.88c-1.925-3.07-0.306 5.5 0.465 1.52l-0.149-0.79-0.316-0.73zm-4.592-0.12c-1.957 2.02 1.297 3.36 0 0zm-1.605-0.39c-2.038-2.03-2.208 4.17-0.204 0.7 0.143-0.21 0.158-0.46 0.204-0.7zm-40.337-2.13c-1.614 0.86 0.604 4.25 0.175 0.84 0.008-0.29-0.114-0.56-0.175-0.84zm79.836 0.97c1.25-1.16-2.35 0.32-0.17-0.97 4.51-0.46 0.7-7.11-1.02-4.73 1.15 2.36-3.14 3.07-1.65 0.36-2.06-1.71-7.687 3.82-2.99 1.43 3.91 1.55-3.279 6.6 1.66 5.7 1.5-0.23 2.95-0.87 4.17-1.79zm-81.836-1.97c-1.614 0.86 0.604 4.25 0.175 0.84 0.008-0.29-0.114-0.56-0.175-0.84zm38.621 1.55c-1.289-1.49-3.576 1-5.217 0.14-1.273 1.51 6.985 2.38 5.217-0.14zm6.965-1.46c-1.512-2.13 2.667-0.85 0.493-2.37-0.863-1.56-3.696-2.5-2.38 0.28-0.04 1.4 2.651 7.36 1.887 2.09zm9.751 0.66c2.325-0.69 1.063-1.85-0.471-1.96 0.788-5.72-6.892 0.86-3.011 3.19 1.362 0.68 2.401-0.66 3.482-1.23zm-4-1.5c1.201-3.16 4.106 2.86 0.323 0.61l-0.228-0.27-0.095-0.34zm-34.388-0.57c-0.522-1.24 3.106-5.79 0.237-4.26-2.508 3.36-0.723-1.02-1.514-1.61-1.639 2.25-1.145 6.35 0.941 7.88 0.433-0.56 0.279-1.36 0.336-2.01zm31.993-1.16c-1.957 2.02 1.297 3.36 0 0zm-46.782-1.52c-0.39-2.51 1.323-8.43 0.941-8.59-1.478 3.01-3.934 8.22-1.05 10.58 0.259-0.64 0.092-1.33 0.109-1.99zm117.83-0.55c1.28-4.11-1.7-8.39-4.41-11.17-3.15-0.22-6.41 0.61-9.51 0.28-0.33 3.26 6.43 3.37 5.78 5.97-1.75 0.13-2.87-0.28-1.45 1.74 1.65 2.85 6.95 7.35 9.59 3.18zm-6.21-1.62c-2.93-2.93 1.44-1.68 2.37-0.52-1.47-2.12-2.7-6.61-5.63-6.46 3.96-2.67 8 3.35 8.34 6.91-0.43 2.55-3.91 1.25-5.08 0.07zm-80.949 1.4c-1.336-0.61-3.577-0.2-2.032-2.55 0.628-4.6-3.586 2.99 0.009 3.56 0.866 0.48 1.747-0.2 2.023-1.01zm31.956-0.7c0.53-1.73-3.114-1.2-3.827-1.83-2.411 2.14 3.329 5.59 3.827 1.83zm-55.103-2.39c2.38-0.64 4.608-5.6 4.333-5.93-1.446 2.23-4.799 6.35-7.264 4.47 3.501-1.23-2.97-2.63 0.804-3.82 0.761-0.35-2.268-3.17 0.696-2.93-4.613-1.16-3.243 6.02-2.397 8.61 1.077 1.06 2.738 0.14 3.828-0.4zm41.657 0.73c-1.408-2.04-7.434-0.16-2.6 0.37 0.874 0.03 1.805 0.05 2.6-0.37zm3-0.62c-2.168-3.7-1.267 2.89 0 0zm2.184-1.22c-3.042-1.77 1.41 4.28 0.418 0.5-0.139-0.16-0.279-0.33-0.418-0.5zm29.965 0.98c0.72-1.4-2.33-4.89 0.91-3.25 2.69-1.49-4.86-5.29-2.78-0.99-2.76 1.53 1.76 1.64-0.02 2.84-1.73-0.38-4.14-1.33-4.55 0.65-2.23 0.1-2.34-6.22-4.29-3.44 1.12 2.2 1.22 4.63 4.24 4.79 2.1 0.67 4.58 0.58 6.49-0.6zm16.35 0.24c-0.86-1.8-4.82-0.45-1.53 0.2 0.43-0.07 3.02 1.8 1.53-0.2zm-76.499-1c-1.662-3.23-3.462 2.09-0.276 0.71 0.174-0.21 0.251-0.44 0.276-0.71zm65.989 0.25c0.6-2.76-4.53-4.01-2.49-0.41 0.41 0.76 2.27 2.02 2.49 0.41zm-45.925-4.56c-0.485-2.89 1.218-1.8 1.521 0.19 1.071 1.54 3.22 0.67 0.783-0.16-1.437-2.34 4.131 0.24 2.039-2.33 1.839-1.53 5.213-6.56 6.093-5.8 0.095 3.39 1.703 0.13 1.477-1.47 1.081-1.723 4.653-6.451 0.27-6.062-5.263 1.105-6.121 6.492-7.873 10.452-0.919 2.16-2.981 2.38-3.034-0.23-1.715-1.13-2.858-4.38-3.554-4.97-2.299 2.3 0.795 6.69-0.569 8.61 0.109-1.85 3.107-6.38 2.933-2.17-0.561 2.05-2.779 6.69-0.774 7.3 0.596-1.01 0.596-2.22 0.688-3.36zm51.245 2.83c2.3-0.03 6.24-4.34 1.5-3.29-2.12 0.48-4.74 4.61-5.2 4.59 1.31-0.2 2.46-0.88 3.7-1.3zm10.69-0.52c-0.3-3.92-5.62 1.68-1.19 0.72 0.4-0.08 1.12-0.17 1.19-0.72zm-73.999-2.06c-0.774-2.96-3.071 0.05-4.436 0.48 0.206 2.21 3.769 0.46 4.436-0.48zm-8.079-1.19c-0.002-3.52-4.459 4.55-0.522 1.8 0.46-0.47 0.615-1.17 0.522-1.8zm12.675 0.64c-0.942-1.91 3.629-0.59 1.75-2.9-1.503-4.13-3.877 6.22-1.549 3.53l-0.201-0.63zm42.943-0.32c0.11-1.53 2.74-5.13-0.18-2.45-4.84-1.38 1.13 5.43 0.18 2.45zm11.21-0.32c1.86-3.15 8.75-0.39 8.79-4.4-1.06 0.85-5.25 2.78-4.82 0.99 1.97-0.92 2.82-2.39 3.7-4.41-0.28-1.68-6.99-3.849-3.89-1.2 3.78 1.13 0.01 4.33-2.26 2.59-1.76-0.01 3.6 1.77 0.37 1.6-2.96-0.06-4.85 6.06-1.88 5.45l-0.01-0.62zm-69.87-1.2c2.131 2.15-1.433-6.41 2.755-4.04 1.524 0.98 7.009-1.08 2.788-0.71-2.37 0.12 1.666-7.084-1.665-3.33-0.919 3.66-5.891 2.75-6.089 6.35-1.605 2.79 0.168 2.94 1.063 0.34 0.692 0 0.862 0.93 1.148 1.39zm12.532-1.05c-1.024-1.81 2.645-4.58 1.798-5.27-3.208 0.81-3.816 5.27-1.706 7.43 0.347-0.62 0.033-1.49-0.092-2.16zm-19.352 0.53c2.386 1.77 1.012-2.61-0.796-1.55-1.877-2.13 3.634-1.88-0.121-2.96-2.08-0.5-1.348 2.21-3.597 0.86-3.315 0.69 2.83 1.26 2.2 3.38 0.719-0.58 1.617-0.02 2.314 0.27zm14.303-0.53c0.257-4.24-3.718 3.56-0.291 0.58 0.097-0.19 0.194-0.39 0.291-0.58zm23.763-0.77c-2.921-1.69 2.477 4.34 0 0zm3.875 0.89c-0.414-1.88-4.134-2.9-1.811-0.31 0.349 0.39 1.645 1.41 1.811 0.31zm29.239-1.68c0.71-1.08 3.53 3.71 2.58 0.14-0.16-1.48-5.29-4.21-1.33-3.27 0.32-3.827-1.7-7.335-2.6-10.965-1.44-4.34-2.77-8.766-5.04-12.764-2.11 0.594 2.47-3.588 0.8-5.059-2.4-3.34 0.97-7.139-0.69-10.74-2.72-1.473-2.01 4.769-2.13 6.58-0.48 7.419 0.94 14.82 3.5 21.77 0.79 1.464 1.13 6.636-1.33 3.369-2.08-3.726-5.99-5.992-9.048-8.666-2.957-0.179-5.172 5.001-7.342 4.173-0.518-2.079 2.583-7.253 0.219-7.229-3.904 3.743-8.153 7.51-13.525 8.843-3.694 0.803-1.28 5.323 1.464 2.719 2.761-1.043 5.818-1.038 8.519-2.763 0.5 1.508 3.58 1.406 0.848 2.763-2.018 1.481 2.287 0.87 3.105 1.005 2.131-2.252 5.399-6.264 7.169-1.844 3.791 0.878 7.041 2.824 10.411 4.712 2.47 1.616 3.93 5.086 3.8 7.876-1.06 0.77-4.07 1.67-0.84 0.98 0.63-0.22 1.93-0.74 1.46-1.63zm-53.239-2c-1.699-3.29-2.567 4.04-0.201 0.66 0.143-0.19 0.153-0.43 0.201-0.66zm48.529 0.25c-1.95-0.61-2.86 2.78-0.58 0.94 0.21-0.18 0.89-0.52 0.58-0.94zm-60.649-4.414c0.7-0.737 1.429-4.061 1.348-3.515-3.293 0.555-4.707 5.829-3.775 7.889 0.727-1.36 0.464-4.072 2.427-4.374zm83.939 3.944c1.17-3.945-3.78-5.478-6.72-6.208-1.16-1.012-6.5-0.431-4.87 0.982 3.28-0.22 7.45 0.305 9.74 2.946 0.53 1.53-1.8 4.98 1.31 2.84l0.54-0.56zm-55.834-4.028c-0.544-4.331-3.564 5.728-0.324 1.838 0.228-0.59 0.321-1.21 0.324-1.838zm13.086 1.438c-0.876-1.04 0.352-4.458-1.622-2.094-2.559 1.904 1.558 2.134 2.143 3.944 0.266-0.6-0.377-1.29-0.521-1.85zm-49.071-0.74c-1.628-2.059-4.373 2.2-1.093 0.79 0.41-0.18 0.869-0.37 1.093-0.79zm3 0.61c-2.031-3.607-2.385 3.66 0 0zm15.288-4.693c-1.406-0.824-2.17-1.212-1.905-2.781-2.697-0.274-1.19 6.62 1.519 3.74-1.991 0.721-2.164 6.494-0.263 2.352 0.481-1.021 0.89-2.169 0.649-3.311zm9.436 3.027c0.275-3.409 4.895-4.269 5.805-7.551 3.45-1.88 8.018-1.103 10.736-4.498 3.597-2.78 6.965-6.033 9.123-10.056 1.214 3.048-1.091 7.555 0.625 10.44 2.949-4.694 2.854-10.583 4.686-15.688 2.75-1.06-0.813 5.162-0.503 7.042-1.509 4.107 1.873 7.498 5.073 9.508 3.44 2.278 0.89-4.371 0.04-5.961-1.35-4.075 0.1-8.521-1.11-12.613 0.08-1.657-3.72 1.261-2.83-1.372 2.87-0.051 0.47-4.994 3.4-6.015 3.97-5.159 9.77-8.444 14.09-13.259-1.93 0.537-4.22-0.462-2.93-1.866-2.31-0.397-5.77 3.974-6.34 2.813 0.27-2.812-4.47 0.316-2.73 2.051-1.19 1.605-3.08 0.01-4.11 2.203-2.27 0.7-5.109 5.033-6.475 4.373 1.986-3.822 5.805-6.263 9.225-8.695 5.12-3.421 11.29-4.752 17.38-4.728 2.69-1.26 7.18 2.508 8.43-0.243-2.6-2.462-7.7-0.649-9.34-4.158-0.77-2.324-0.49 2.775-2.68 1.002-2.76 0.197 3.92 2.095-0.05 1.932-2.49-0.032-3.19-1.972-5.66-1.125-3.17 0.012-0.66-3.294-3.79-2.784-3.98-0.581-8.06 0.14-11.997-0.817 3.277-2.487 7.767-1.771 11.607-2.519 4.26-0.32 7.4 4.129 11.64 2.222 3.4 0.225 6.57-5.274 1.79-5.092 0.12-1.402-2.03 2.388-1.85-0.632 0.43-1.715-2.4-4.663-1.55-1.37-1.67 3.739-1.36-1.184-1.86-2.091-0.46 2.784-1.8 2.951-3.92 1.619-0.96 1.023 0.74-3.568-1.35-1.296-2.8 1.948 5.11 3.799 0.39 4.437-4.59 0.248-8.09-3.42-10.56-6.845 1.38-1.534 7.27-2.277 6.42-3.712-1.4-0.011-5.87 0.867-5.56-0.586 6.06-2.365 12.27 0.956 17.46 3.888 1.61 2.815 5.01 2.395 6.24 4.879 1.69-2.499 4.74-5.472 0.81-7.438-3.11-3.216-6.51-6.69-11.14-7.404-3.02-1.6-6.72-1.802-9.55-3.071 0.52-2.866 9.66 1.099 4.69-1.357-3.19-1.482-7.43-2.153-10.54-1.574 1.97 0.15 4.73 1.469 1.12 1.571-6.362 0.183-13.008 1.041-18.323 4.854-5.618 4.459-11.047 9.702-13.965 16.379-1.681 5.076-4.265 9.785-6.429 14.663-3.215 1.531-0.691 6.59-3.739 8.19-0.855 4.125-4.669 6.537-6.665 10.027-3.107 2.727-3.29 6.492-2.596 10.088-0.604 2.164-1.257 3.916-2.173 4.967 1.006 3.047-2.929 2.256-1.03-0.127 0.45-2.068 3.135-4.773 2.146-6.396-3.299 1.236-2.481 5.743-5.213 7.375 1.102 3.389 2.274 7.168 1.029 10.631-0.99 1.279-1.381 3.368-1.724 4.982 0.7-0.405 1.119-1.431 2.507-0.879-1.544-2.914 5.878-3.057 1.46-5.334-2.442-3.608 1.464-7.897 5.368-6.411 3.875-1.574 6.7-4.748 10.713-5.531 0.106 0.397 1.291 3.528 1.916 1.101-0.378-1.431 3.392-4.943-0.101-3.377-2.878 1.353 4.076-5.079 3.298-1.035 1.403 0.594 5.508-3.017 7.502-4.692 0.974-1.569 5.897-4.559 4.262-0.494-0.153 2.764-3.906-0.861-4.423 2.319-3.167 2.453-6.371 5.413-9.465 7.078 0.222 1.252 2.556-1.033 0.714 0.96-2.5 2.453-5.468-0.466-8.082 1.927-3.357 0.998-5.696 3.862-7.629 6.57 1.882-2.661 6.386 0.309 6.881-2.787 3.041-1.815 6.817-3.55 9.479-0.82 1.918-0.389 3.383-4.951 4.644-3.977-0.486 1.346-2.591 5.405 0.481 4.45-3.164 3.25-3.92 8.153-5.198 11.843-1.144-0.752-1.225-3.57-1.695-0.799 0.058 2.377 4.561 4.977 3.695 0.691zm10.98-13.38c0.828-1.726 3.63-7.042 0.899-6.9-1.696 1.76-6.223 6.019-7.325 4.492 2.29-3.84 7.682-4.449 9.555-8.81 0.857-1.631 2.594-3.272 1.353-0.308-1.078 4.911-0.896 11.117-5.591 14.209-0.364-0.734 0.914-1.905 1.109-2.683zm-11.704-3.453c0.856-1.495 4.05-3.283 1.638-0.637-0.719 1.32-4.964 4.342-2.099 1.139 0.154-0.167 0.308-0.335 0.461-0.502zm-15.617-5.678c2.314-3.633 2.792-8.014 3.041-12.195 0.553-2.947 3.024-1.591 1.748 0.728-0.663 4.1-0.23 8.818-3.659 11.859-1.063 1.121-5.087 6.237-2.766 2.531 0.546-0.974 1.091-1.949 1.636-2.923zm2.176 2.71c1.475-1.798 4.329-1.36 1.38 0.378-0.865 0.776-4.035 1.562-1.38-0.378zm4.991-2.297c1.902-1.011 4.203-4.742 5.817-3.896-0.861 1.285-4.343 6.514-5.817 3.896zm-2.55-1.176c1.866-3.398 2.357 2.235 0 0zm10.64-2.557c-0.966-1.882 3.16-8.389 2.351-3.747 0.235 1.066-0.81 6.662-2.351 3.747zm-9.926-0.157c-1.053-1.902 3.489-5.691 1.998-1.775-0.32 0.641-0.946 2.642-1.998 1.775zm51.585-18.689c2.73-0.388-1.72-3.759 1.76-2.28 2.41 1.34-4.93 4.642-1.76 2.28zm3.56-3.459c0.65-0.905 0.74-2.75 1.41-0.53 0.12 0.559-3.69 2.343-1.41 0.53zm9.41-6.801c2.34-1.368 3.16 2.058 0 0zm-48.186 53.655c-1.352-1.562-5.582 0.907-1.832 0.855 1.42 0.718 1.147 2.953 2.654 0.411 0.222-0.589-0.374-1.055-0.822-1.266zm-35.787-2.382c-2.477-0.699-2.592 6.47-0.52 2.531 0.416-0.75 0.886-1.659 0.52-2.531zm17.112-4.586c-2.077 0.43-1.926 5.66-2.033 5.794 0.711-1.903 2.041-3.698 2.033-5.794zm8.049 2.847c-2.867-2.779-4.711 4.604-0.785 1.89 0.524-0.43 1.107-1.173 0.785-1.89zm2.543-4.489c-2.75-2.132-2.344 3.886 0 0zm-14.037-24.941c-1.918-0.088-4.561 7.172-1.746 3.097 0.718-0.942 1.464-1.923 1.746-3.097zm93.056-15c0.32-3.188 0.76-8.434-2.43-8.919 1.15-1.941-0.14-6.016-0.94-2.322-2.35 0.237 0.23-4.656-3.18-3.327-1.94 1.975-0.91-1.776-3.02 0.084-2.08 2.001-1.32-2.133-3.02 0.137-4.3 1.754-0.29-3.51 2-2.064 2.91-0.035 2.56-2.665-0.01-2.882-0.82-0.713-3-1.325-1.84 0.467-2.03-4.438-5.88 1.539-5.42 3.013-2.23 0.89-2.21 4.563-4.18 5.92 0.35 2.763 1.61 2.719 2.55 0.049 1.5-0.366 0.75 4.852 2.79 1.773-0.33-1.915 4.77-5.572 4.73-3.381-2.42 1.03-3.68 7.446-0.09 4.855 2.17-1.38 0.11 3.597 2.95 1.99 4.1 0.361 7.36 3.755 7.27 7.868 0.97 2.423 1.96-2.812 1.84-3.261zm-4.45-1.072c-3.67-3.489-0.58 3.65 1.17 1.805-0.17-0.705-0.6-1.352-1.17-1.805zm-3.57-1.366c-1.73-2.777-5.12 1.749-0.98 0.858 0.44-0.08 0.97-0.336 0.98-0.858zm-28.51-15.051c-1.18-1.962-3.59 2.571-0.54 0.569 0.23-0.14 0.37-0.366 0.54-0.569zm4.64-6.278c-2.92-1.695 2.47 4.335 0 0zm-23.617 251.52c-2.856 5.92 0.107 0.48 0 0zm-5.27 1.25c-0.35-1.05-0.6-5.6 0.316-3.37-0.062 1.22 2.362 3.43-0.316 3.37zm55.757-20.5c1.33-1.24 6.6-2.59 2.59-0.37-1.46 1.29-7.49 3.3-3.27 0.76l0.68-0.39zm64.75 1.28c-1.81-0.59-5.7-2.8-5.74-3.09 0.09-3.8 2.61-0.78 4.71-0.74-1.21-1.52-4.97-3.77-5.89-1.62-2.12-0.39-5.61-4.38-1.34-3.77 4.2-0.2 6.73 4.57 10.95 4.91 1.5 0.93 1.59 2.72 2.43 4.11-1.29 1.77-3.47 0.19-5.12 0.2zm-68.75-1.67c0.99-2.11 3.85-0.31 1.03 0.36-0.29 0.1-1.02 0.14-1.03-0.36zm32.41-1.24c0.34-2.46-6.28 0.68-2.6-1.77 2.6-2.68 5.23 3.54 6.78 0.37 2.17 1.05 3.58 2.36 6.35 1.52 3.44 0.74-3.51 1.48-4.66 1.31-1.47-0.38-5.83 0.68-5.87-1.43zm14.31-0.07c1.03-3.48 4.57 3.47 0.7 1.29-0.52-0.13-0.98-0.76-0.7-1.29zm-42.72-0.73c0.39-1.67 5.89-2.93 2.4-0.79-0.77 0.3-1.5 1.07-2.4 0.79zm52.56-0.48c1.22-2 5.13 1.89 1.4 0.84-0.53-0.13-1.08-0.37-1.4-0.84zm-55.56-1.96c2.24-1.46 7.33-5.88 8.65-3.59-2.19 2.48-8.99 3.45-9.89 4.63 0.41-0.36 0.82-0.7 1.24-1.04zm49.25 1.18c1.41-0.82 5.54 0.63 1.75 0.46-0.18-0.01-3.1 0.02-1.75-0.46zm-55.25-1.74c0.39-1.67 5.89-2.93 2.4-0.79-0.77 0.3-1.5 1.07-2.4 0.79zm39-0.01c1.02-3.08 3.3 0.81 0.54 0.25l-0.54-0.25zm34-7.45c1.07-1.79 7.31 0.03 5.08-3.03-5.01-0.39 2.66-4.4 2.57-0.54 3.68 3.59-3.72 3.16-5.87 4.34-0.67 0.07-1.48-0.1-1.78-0.77zm-60.15-1.36c3.52-2.15 0.88 3.06-0.3 0.38 0.1-0.13 0.2-0.25 0.3-0.38zm48.15-73.25c-2.6-3.08 2.69-1.4 1.78 1.03-0.71 0.22-1.39-0.53-1.78-1.03zm-149-95.999c0.856-1.495 4.05-3.283 1.638-0.637-0.719 1.32-4.964 4.342-2.099 1.139 0.154-0.167 0.308-0.335 0.461-0.502z"/>
  </g>
  <metadata>
    <rdf:RDF>
      <cc:Work>
        <dc:format>image/svg+xml</dc:format>
        <dc:type rdf:resource="http://purl.org/dc/dcmitype/StillImage"/>
        <cc:license rdf:resource="http://creativecommons.org/licenses/publicdomain/"/>
        <dc:publisher>
          <cc:Agent rdf:about="http://openclipart.org/">
            <dc:title>Openclipart</dc:title>
          </cc:Agent>
        </dc:publisher>
      </cc:Work>
      <cc:License rdf:about="http://creativecommons.org/licenses/publicdomain/">
        <cc:permits rdf:resource="http://creativecommons.org/ns#Reproduction"/>
        <cc:permits rdf:resource="http://creativecommons.org/ns#Distribution"/>
        <cc:permits rdf:resource="http://creativecommons.org/ns#DerivativeWorks"/>
      </cc:License>
    </rdf:RDF>
  </metadata>
</svg>
