<?xml version="1.0" encoding="utf-8"?>
<svg version="1.1" id="Layer_1" xmlns="http://www.w3.org/2000/svg" xmlns:xlink="http://www.w3.org/1999/xlink" x="0px" y="0px"
	 viewBox="0 0 2324.18 1643.06" enable-background="new 0 0 2324.18 1643.06" xml:space="preserve">
<path fill = "#FFC4B2" d="M366.365,889.27c67.81-46.14,140-85.84,215.38-118.17c2.69-1.12,4.92-3.05,7.03-5c76.49-69.39,158.35-133,245.64-188.27
	c-6,0.604-27.734,4.73-26.18-6.77c1.22-6.68,6.18-11.77,10.81-16.38c48.72-47.41,115.73-61.85,168.95-80.29
	c30.92-10.22,72.81-45.45,239.86-82.27c187.33-39.75,163.67-5.44,237.92-35.77c42.73-18.03,99.5-53.11,128.3-84.08
	c11.49-11.85,20.21-46.02,73.58-71.76c11.54-5.82,23.84-9.84,35.93-14.3c-30.28,2.39-36.2,7.7-46.01,9.49
	c-1.028-7.267,30.385-25.323,58.14-31.51c-11.04-1.26-22.11,0.5-32.62,3.92c-0.64-0.52-1.94-1.56-2.6-2.08
	c16.98-15.28,38.94-24,61.11-28.47c-12.88,0.81-25.67,2.65-38.16,6.01c14.52-19.41,36.19-32.58,59.59-38.37
	c-7.8,0.59-15.42,2.23-22.93,4.35c19.14-29.24,49.68-25.71,91.78-31.2c-18.52-1.47-37.08-1.01-55.54,0.99
	c-0.23-2.08,0.51-3.64,2.24-4.64c23.15-14.28,50.64-21,77.77-19.87c-11.63-3.12-23.75-3.27-35.68-2.77
	c0.18-0.79,0.56-2.36,0.75-3.16c20.92-7.55,43.56-9.64,65.69-8.68c-12.71-8.13-27.64-11.45-42.4-13.31
	c38.714-33.704,293.006,100.328,351.28,141.75c5.54,3.66,8.65,10.06,7.45,16.69c49.53,35.82,90.28,77.49,90.28,122.95
	c0,32.824-24.342,63.039-30.31,63.29c0.71-7.18,5.59-26.87-0.58-31.45c-15.97-15.96-40.58-15.01-59.14-26.33
	c-8.51-5.66-49.31-10.31-102.62,9.82c-114.567,43.447-113.818,104.445-162.46,203c-26.79,53.29-3.45,84.27-33.62,169.48
	c-91.93,263.1-329.01,387.26-457.88,475.91c-109.244,136.619-101.526,181.537-133.36,173.36c-4.51,5.04-9.45,9.69-14.63,14.01
	c30.84,93.28,44.16,154.24,176.46,140.15c9.6-1.27,19.42-1.51,28.76-4.4c51.43-13.55,42.31,8.07,56.86,7.04
	c39.38-2.92,63.31,10.62,72.65,49.48c-4.09-2.64-7.82-5.74-11.75-8.57c3.38,6.94,9.92,13.1,9.81,21.23
	c-6.42-1.9-21.35-17.59-47.17-22.19c12.25,11.38,23.5,24.63,28.88,40.74c-3.79,1.33-5.95-2.37-8.39-4.45
	c-8.62-8.49-19.75-14-31.24-17.45c-7.76,10.38-21.73,9.87-33.31,9.52c1.27,4.68,3.07,9.31,3.15,14.23
	c-5.35-1.01-6.83-7.12-10.03-10.84c-6.97,1.64-14.15,2.42-21.26,1.55c0.56,4.64,1.09,9.32,1.01,14.03
	c-7.01-2.13-6.22-12.18-11.98-15.99c-5.68-1.89-11.57-3.12-17.16-5.26c-1.6,2.94-3.42,5.75-5.03,8.7c2.45,6.57,6.9,12.53,7.81,19.71
	c-1.21,7.98-9.27-8.15-19.04-11.31c-12.65,5.05-27.43,6.01-39.78-0.44c-7.64,6.39-17.88,7.86-27.5,7.79
	c-38.84-1.16-32.37-17.85-94.64-9.73c-25.34,3.38-51.24,8.68-76.7,3.35c-54.675-9.597-105.62,38.925-161.74,22.54
	c-6.1-1.58-12.7-3.69-15.94-9.58c-19.1,3.8-37.73,10.75-53.56,22.29c3.91-28.48,31.14-44.84,60.89-48.44
	c4.04-8.06,11.11-15.65,20.63-16.22c35.29-1.07,90.39-20.28,99.81-42.54c13.45-25.05-2.16-61.99-31.39-140.93
	c-34.08,1.21-41.13-14.63-45.42-23.19c-32.28,12.04-56.83-10.94-54.32-44.67c-57.377,27.194-60.055-33.586-34.72-92.35
	c-28.756,6.44-28.884-25.152-23.75-54.22c-19.07,4.69-38.6,9.46-58.39,7.81c-18.03-2.1-27.31-10.7-17.1-25.61
	c-73.59,9.61-87.4-16.93-68.48-35.45c-7.99-0.31-16,0.01-23.99-0.31c-26.791,47.33-143.884,248.346-190.55,276.32
	c-30.161,18.689-93.904,30.03-90.16-12.95c-42.66,37.99-113.08,53.23-106.65,4.12c-34.44,24.1-82.42,28.24-90.74,7.46
	c-3-7.02-0.35-14.55,1.79-21.37c-12.44,7.17-26.01,13.15-40.5,14.11c-4.06,0.47-8.59-0.52-12.04,2.17
	c-38.06,23.61-107.49,2.69-74.87-52.62c-53.02,24.71-82.55-0.18-67.51-35.31c-48.62,21.31-104.35-9.9-90.35-48.09
	c-27.562,7.447-45.716-14.856-10.81-49.61c83.45-78.3,203.53-132.55,335.4-196.09c-1.42-0.09-4.27-0.29-5.69-0.38
	c7.64-11.2,19.12-18.74,29.91-26.55c-15.7,7.05-29.72,17.27-43.54,27.4c-38.83,2.33-78.06,1.46-116.6-4.17
	c117.05-90.7,171.49-107.64,192.46-117.83c-25.29,3.71-49.96,11.09-73.72,20.4C367.515,891.64,366.745,890.05,366.365,889.27z"/>
</svg>
