<?xml version="1.0" encoding="UTF-8" standalone="no"?>
<svg id="svg2" xmlns:rdf="http://www.w3.org/1999/02/22-rdf-syntax-ns#" xmlns="http://www.w3.org/2000/svg" height="1360pt" width="1857pt" version="1.1" xmlns:cc="http://creativecommons.org/ns#" xmlns:dc="http://purl.org/dc/elements/1.1/" viewBox="0 0 1857 1360">
<path fill = "#ADD8E6" id="path4" d="m1515.7 7.0723c-5.1 0.0259-10.1 0.4156-15 1.0156-32.6 4.3251-12.3 50.111-28.2 68.424-32 1.025-66.8-1.263-96.3 14.625-7.4 2.45-15.3 13.603-22.9 5.638-54.6-25.7-119.4-32.713-176.3-9.738-30.9 12.688-63.2 29.643-79.6 60.343-7.7 18.97-33.9 16.78-43.2 35.06-28.9-4.12-58.1-7.2-85.96-16.89-28.74-10.51-59.83 3.07-78.19 25.7-10.07 12.45-7.7 32.69 5.25 42.25 15.79 14.92 39.73 11.88 56.79 24.38 16.64 13.48 27.53 41.48 6.11 57-55.09-14.03-116.88 13.13-143.2 63.69-3.52 9.4-14.45 3.02-21.57 3.33-41.84-14.62-87.49-5.92-129.72 3.13-96.57 4.7-192.97 20.66-283.66 55.01-40.92 14.11-75.61 41.08-110.76 65.5-53.67 35.48-99.23 86.41-115.26 149.82 1.53 21.37-16.88 35.38-20.75 55.43-33.617 60.53-71.505 118.91-105.74 179.25-20.803 36.62-23.615 86.55 1.61 121.36 14.9 7.4 19.613-12.45 15.338-22.99-9.412-27.46 3.613-58.37 26.313-75.12 24.762-17.33 42.999-42.01 59.409-67.01 2.79 0.06 2.28 4.08 2.3 6.06-6.44 47.77-21.99 94.82-17.26 143.62 0.24 74.84 31.57 144.74 65.37 209.94 1.28 11.7-12.12 18.1-17.55 27.2-18.43 18-31.78 42.5-29.5 69-2.86 42.4-43.208 63.9-69.871 91.6-20.187 17.4-48.924 36.1-43.549 67-0.112 50.3 38.862 94.1 86.2 106.7 50.81 20.2 105.47 17 158.81 15.3 30.24-4.7 63.25-3 90.08-19.9 18.64-12.2 18.81-36.7 16.21-56.5-3.2-19.1 12.89-35 8.75-53.9-0.41-10.5-7.35-23.1-1.88-32.7 5.95 10.6 17.58 15.1 27.32 21.3 5.2 14.8-22.26 31.5-4.8 43.3 33.94 14.2 71.44 14.8 104.96 30 25.14 8.1 52.44 5.5 78.51 9 24.43 3.9 59.68-10.3 60.18-38.6 43.16-4.8 87.09-9.8 127.79-26-17.82 48.5-58.57 85.3-73.88 134.7-7.96 21.7 4.93 45.7 26.56 52.9 49.88 23 106.02 24.8 158.13 40.6 45.51 11.2 92.65-2.3 138.81 2.5 62.8 5.8 125.2-7.3 184.6-26.5 9.5-3.1 3.4-15 7.3-21.6 13.5-51.3 11-107.2-10.3-156.1-11.5-29.5-29.7-56.7-43.2-84.8 21.6 2.5 43.7-0.6 65 0.2 7.1 20.3 8 42.5 2.4 63.3-3.8 15.2-6 33.9 6.3 45.9 18.7 21.2 48.2 24.6 71.5 38.3 22.2 25.3 59.3 12.7 87.4 6.1 65.6-10 131.7-16.8 197.8-22.2 27.3-7.2 22.4-46.2 4.2-60.6-26.4-18.4-47.2-48.8-82-50.6-13.5-61-45.3-114.9-71.7-170.7-13.6-23.8 1.9-50.8 7.5-73.8 24.4 15.7 51.4 27.2 79.9 32.7 8.6 46.1-2.7 94.2 9.1 139.5 14.6 40.2 37.5 81.2 78.6 99 39.4 25.1 84.7 36.8 130.6 43.1 57.8 17.3 118.5 8.3 177.4 17.6 54.6 2.7 110.9 15.9 164.4-2 23.3-7.2 49-5.3 71.2-16.3 43.4-20.4 67.7-66.7 72-113 13.3-41.4 15.2-89.2-8-127.5-1.7-28.1-2-55.1-3.2-82.4 26.2-29.1 43.1-67.8 45-106.7 0-25.4-11.1-48.9-18-72.98-2.6-8.93-12-17-21.7-14.1-18.5 6.57-33 23.42-36.1 42.88-2 3.3-1.6 15.5-7.8 13.1-35.8-51.45-85.1-92.34-117.5-146.29-42-70.66-39.3-157.73-25.1-235.97 23.3 0.51 47.9-2.34 69.2-13.18 4.7 21.1-12 43.83 1 64.23 14.5 28.09 50.7 26.62 77 19.92 14.6-4.54 35.5-7.36 40.1-24.94 6.1-28.98-2.1-58.63-4.9-87.03 32.8-9.04 75-23.68 79.6-63.12 15-38.5 6.4-80.19-2.8-119.04-10.1-53.03-38.8-100.09-73.4-140.63 1-28.07 12.4-56.89 2.4-84.7-12.5-28.09-41.8-42.75-68.9-53.51-40.9-16.62-91.2-15.74-128.4 9.6-64.4-13.75-130.6-31.31-196.9-19.8-13.6 1.05-26.3 8.41-40.1 5.87-45.5-7.75-97.6-2.46-133.4 29.36-14.8 12.52-22.7 32.64-32.3 47.29-9.3-18.8-20.5-37.87-37.4-51.31-21.3-13.2-27.5-38.03-43.9-55.81 32.2-17.703 33.2-63.04 11.5-89.328-11.5-10.621-26.9-13.818-42.2-13.74zm-12.6 9.4847c7.6-0.066 17.9 2.822 23 0.994 42.4 1.487 51.4 72.999 11.6 83.609-16.4-8.973-32.5-21.561-52.5-21.461-3.7-4.825-1.6-15.187 2.3-19.625 3.7-10.725 0.4-25.173 6.3-34.398-1-7.23 3.4-9.068 9.3-9.119zm-253 64.382c34.3 0.103 69.4 9.571 100 23.881 2.8 0.27 11.8 8.77 4 7.5-46.9-8.11-96.4-2.33-138 21.19-48.7 32.23-75.1 98.94-51 153.88 30.9 72.17 118.7 98.32 191.1 86.31-13.1 14.15-27.4 29.07-42 42.4-4.6 9.11 7.4 9.6 11.3 4.58 36.6-33.49 67.6-74.49 110.4-100.42 46.1-33.07 99.6-56.34 154.2-71.82 6.8-3.29 19.6-5.34 28.4-5.99-0.2 6.64-3 13.08-2 19.76 10 3.85 10.1-7.58 11.8-13.91 11.1-32.22 23.8-68.3 56.5-84.69 70.3-35.45 159-11.47 214.4 40.8 3 3.79 7.8 7.05 12.9 4.98 3.7-9.63-7.5-13.54-12.9-18.67-21.8-20.9-50.2-32.67-77-44.83 4.3-1.89 9.7-1.34 14.6-1.7 36.4-6.03 81.9-4.58 120.5 4.66 34.5 6.7 70.5 13.08 102.5 28.83 22.5 8.01 41.4 23.33 58.5 39.48 15.5 0.54-1.3-15.19-6.1-19.52-20.5-16.97-44.3-29.33-69.4-38.04-0.6-4.75 8-5.68 12-7.38 8.7-4.06 18.4-6.01 27.9-7.13 42.4-7.3 90.6 10.44 124.3 39.21 24.8 22.76 11.2 58.85 10.3 87.85-9.8-1.37-25.3-34.34-31.8-13.33 26.3 23.34 50.4 49.65 68.6 79.94 27.8 43.44 39.9 95.2 46.2 145.92 16 41.5-16.6 88.36-59.9 93.58-108.4 3.4-214.1-32.78-322.6-28.15-21.4 1.49-41.7 8.81-61.7 15.93-43.2 23.71-90.3 49.97-141.8 40.95-31.6-5.79-66.3-11.14-89.7-35.35-21.6-19.98-29.5-48.8-39.8-75.19-6-14.59-9.6-30.11-16-44.54-3.4-1.14-12.2-2.13-8.7 5.08 11.3 30.56 19 62.35 33.5 91.42-24.9 19.08-40.7 47.53-45.7 78.28-10.8 43.62-30 86.86-27.4 132.7 1.6 34.87 23.4 64.07 29.9 97.72 6.6 56.14 18.9 111.75 18.9 168.49 4.9 59.7 25.2 121.1 68.6 164 15.2 11.1 23.4 30.4 41.1 38.1 25.1 4.1 56.3 3 71.1 28.4 17.3 16.3 38.8 27.7 57.3 42.8 32.9 26.1 75.3 31.7 113.4 46.6 33.1 5.5 67 5.9 100.6 5.8 61.7-6.7 130.4-11.2 179.9-49.9 10.7-8 15.8-21.8 22.3-31.5 12.1 31.9 10.8 67.7-0.5 99.5-2.6 23-7.2 46.8-19.6 66.7-6.4 15-18.1 27.7-29 39.7-36.1 24.2-81.3 24.7-123 30.8-63.4 7.7-125.9-10.3-189.1-11.7-58.8 3.3-117.2-14.5-173.7-24.9-7-0.8-14.3-1.7-20.3-5.6-34.9-18.4-77.1-32.2-98.4-68.1-45.1-55.1-21.9-129.9-31.7-194.7-4.4-32-4.8-66-10.1-98.6-4.3-27.6-21.6-50.1-36.2-72.9 0.4-6.9-0.6-20-11.2-14.4-2.8 14-11.2 26.1-18.9 38 5.6 23 16.5-8.5 22.3-15.7 14.2 20.5 37 44.5 35.8 73.3-1.4 28.9 6.5 57.2 6 85.9-32.4-3.4-65.1-21.6-88.2-43.3-36.8-33-64.5-75.3-91.5-116.5-23.5-35.4-25.4-79.49-43.8-117.19-1.5-6.17-11.6-13.88-13.6-4 13.7 24.6 20.1 52.11 26.9 79.18 11.4 31.11 27.9 60.51 48.6 86.41 23.9 29.4 43.4 63 73.8 86.6-8.8 54.6-31.4 108.7-68 150.6-22.4 25.7-51.6 45.9-84.1 56.2-34.1 12.4-73.5 19.1-110.3 15.4 16.5-11.6 32.1-25.4 42.5-42.8 2.6-5.4-0.1-10.1-5.6-9.6-1.8 1.9-3.1 4.4-5.6 5.3-14.1 36.4-64.9 59.1-98.1 34.1-28-26-55.8-51.1-92.3-62.1-29.15-0.3-62.8-5.7-87.75 13.5-13.25 8.5-18.14 23.7-26.15 36.2-1.74 5.5-18.53 12.2-7.51 17.2 23.7-6.1 22.44-39.2 44.92-48.4 38.17-19.3 89.69-12.3 120.99 17.4 8.7 4.2 16.5 11.1 22.8 18.7 11.5 11.3 24.4 24.5 41.6 25.4 14.1 3.3 34.3 4.3 36.6 22.6 21.7 35.7 41.5 77.1 47.9 119.7 2.5 4.8 1.4 15.8 0.8 23.3-16.6-2.5-36.3 6.2-42.8 22.2-29.3-10.7-59.9 7.6-73.5 33.9-6.4 6.9-13-4.6-19.6-6-47-17.9-96.27 26.3-107.95 70-34.92 0-70.57 2.9-104.09-9.2-44.46-12.4-94.66-14.4-135.25-35.5-8.18-3.4-17.64-9.3-19.76-18.6-6.63-44.8 34.8-75.8 50.51-111.3 10.97-32 33.73-56.2 40.79-91.1 0.45-28.7-2.5-58.4-7.66-86-12.78-1.4-7.17 14.7-7.65 22.6 7.45 25.7 13.41 55.7-0.33 80.4 0.03 7.9-5.19 14.5-13.11 15.4-34.66 15.4-72.7 22.1-110.43 24.2-4.12 0 5.47 9.8-6.25 3.3-45.4 1.8-91.06 2.5-135.91-5.9-47.71 0.8-87.85-27.6-127.59-49.7-17.66-21.7 20.66-44 9.58-69.6-13.71-5-5.51 12.3-11.62 18.1-5.14 14.6-11.51 28.7-19.49 41.9-4.72 26.8 7.37 54-5.95 79.2-15.24-0.1-30.95 3.2-42.99 13.1-18.06-11.7-43.47-11.1-61.1 1.3-6.79-4.6-8.5-16-17.57-18.6-44.58-16.6-93.34 19-97.69 64.5-2.44 4.5-0.09 19.2-9.02 15.9-35.408-8-71.957-23.4-90.945-56.4-11.312-17.2-13.613-38.7-13.4-58.8-3.313-28.1 27.175-41.3 45.85-55.7 17.2-16.2 37.805-30.8 50.115-50.7 2.59-4.8 9.43-5.8 9.22-12.4 6.21 8.8-0.93 36.6 15.59 35.6 0.23-16.2-0.76-35.1-10.62-48.2-0.15-22-5.23-50.9 14.84-66.4 7.52-3 10.98-10.7 17.34-15 13.19-16.9 26.7-34.1 39.7-50.9-4.49-18.5-17.34 7.1-24.44 12.1-42.91-80.8-76.85-172.1-59.9-264.85 5.85-34.65 17.64-69.66 11.25-104.88-0.37-13.46 15.22-21.16 11.86-34.78-13.53-1.22-16.15 16.3-21 26.87-13.09 37.44-41.355 67.77-72.705 91.05-24.213 20.3-29.176 53.65-22.338 83.08 0.912 14.61-4.787-4.99-8.162-6.55-9.613-9.18-6.601-25.69-8.088-37.55-4.613-47.11 31.401-82.78 53.738-120.07 16.725-24.4 25.413-53.79 45.215-76.03 11.6-18.6 23.63-37.1 30.88-57.97 12.29-13.58 14.38-32.67 16.17-48.52 9.43-24.6 21.39-48.38 36.32-70.13 34.65-42.18 82.39-70 126.29-101.27 77.21-46.16 167.01-68.13 256.45-73.25 7.49 1.19-8.54-7.11 6.05-3.06 31.74-2.87 63.54-5.58 95.13-9.69 39.41-10.83 85.2-8.82 121.4 2.29-4.23 7.15-5.09 16.21-9.79 23.2-2.01 16.47-11.04 31.57-9.39 48.59 2.61-1.5 11 3.74 9.85-2.49 4.24-17.15 5.24-37.17 13.3-52.67 14.9-49.07 61.13-91.12 114.34-88.73 8.82-0.1 17.83-0.47 26.57 1.05-2.54 9.51-5.36 14.31-9.95 21.44-4.33 20.48-14.33 40.39-11.12 62.13 13.56 4.69 8.89-12.71 10.37-20.3 5.43-17 9.85-38.61 17.68-52.78 13.9-25.18 28.42-49.9 45.56-73.03 0.7-4.5 3.2-8.51 5.6-12.34-3.5-13.25-12.56-1.41-15.35 4.88-10.8-18.3-39.97-17.59-46.39-38.69 5.72-22.01 34.19-22.75 50.13-11.31 18.61 12.06 49.51 14.27 55.91 38.96 3.1 6.74 1.2 14.59 4.2 21.34 13.3 3.62 5.2-13.29 7.1-19.73-7.7-29.11-39.4-38.56-63.3-50.86-18.41-10.3-44.13-11.71-58.81 5.57-5.77 10.32-7.95 26.49 3.11 34.14 11.31 11.05 28.76 13.35 38.71 26.15 5.47 7.19 0.57 20.7-6.71 22.73-4.99-16.64-15.38-32.9-32.89-38.28-19.16-3.97-37.44-10.15-52.91-22.34-6.41-21.41 13.55-38.76 31.68-45.66 36.28-10.9 69.52 16.06 105.92 13.2 22 5.59 50.8 8 61.2 31.72 6.7 6.8 10.5-1.22 9.3-7.43-21.9-12.59-6.4-37.51 2.4-53.01 15.4-38.85 59.6-61.416 95.2-69.803 16.7-5.737 34.4-8.251 52.3-8.198zm194.4 4.276c18.2-0.12 36.5 2.478 53.5 6.935 18.5 8.01 43.1 20.3 53 41.57-30-10.25-59-28.01-92.2-23.82-26.1-4.5-49.5 18.96-74.9 7.2-12.3 3.8-21.6-13.53-6.7-16.13 20.4-10.957 43.8-15.602 67.3-15.755zm18.8 33.625c15.8 0.1 31.4 3.19 44.6 10.2 21.2 5.41 42.8 14.57 59.4 29.72 6 2.74 15.2 10.43 16.1 14.59-34.6-6.54-71.4-4.55-106.6-0.3-3.7 1.56-10.2 0.65-10.6-4.3-9.2-13.74-23.6-24.72-35.8-33.82-4.6-1.38-17.5-5.77-7.9-9.97 12.7-3.95 26.9-6.2 40.8-6.12zm-152.7 0.1c52.1-0.17 110 9.9 144.9 51.78 6.5 7.04-6.1 5.88-10.8 6.58-90.4 20.69-193 44.08-259.4 116.81-2 4.42-6.5 0.68-6.9-2.43-11.6-17.32-12.7-41.17-12.4-61.71 2.5-10.06 7.9-36.34 22.5-55.01 8-12.67 19.2-24.04 31.4-32.45 17.8-13.65 50.4-18.99 62.5-22.56 9.1-0.6 18.5-0.98 28.2-1.01zm-228 52.86c5.6-0.4-2.1 12.64-3.6 17.39-4.3 1.53-11.2-0.6-14-4.18 3.6-6.19 10.5-10.06 17-13.12 0.2-0.05 0.4-0.07 0.6-0.09zm455.6 7.87c15.2 0.05 30.4 0.92 45.7 2.74 22.9 1.99 29.7 29.67 37.4 47.39-50.9 11.41-100.1 30-146.2 54.34-37.3 20.3-70.9 46.85-102.6 74.72-60.6 16.12-132.3 4.94-176.6-42.26-2.3-3.78-8.5-7.04-6.8-12.14 40.5-45.71 97.2-72.87 154.6-90.75 63-19.13 128.5-34.26 194.5-34.04zm237.4 11.07c-7.6-0.02-15.2 0.44-22.4 1.17-34.1 6.43-76.2 20.43-90.8 53.35-4.3 11.31 8.7 12 15.1 7.5 51.3-24.01 110.1-19.48 165.8-19.02 10.9 4.64 15.2-12.25 6.2-15.74-18.1-21.12-46.5-27.21-73.9-27.26zm-201.7 3.49c-3.3 0.03-6.5 0.48-9.2 1.37-14.1 0.47-25.2 18.76-15.8 30.36 13.9 15.33 45 11.12 53.5-7.96 2.6-15.96-14.1-23.89-28.5-23.77zm8.1 4.99c7.1-0.03 14.5 3.04 11.7 11.79-8 5.14-24.4 1.61-18.3-10.82 2-0.61 4.3-0.96 6.6-0.97zm116.6 18.6c7.2 0.22-3.3 9.14-7.1 10.07-9 3.12-13.5 15.14-22.6 16.6 1.6-12.93 16.6-20.55 26.9-26.44 1.2-0.18 2.1-0.25 2.8-0.23zm-270.2 6.4c-4.8 0.01-9.6 0.51-13.8 1.25-21.5-2.23-37.5 32.24-17.4 43.87 21.9 8.77 58.5 3.64 62.4-24.41-1.2-16.19-16.5-20.71-31.2-20.71zm11.3 5.17c4.8 0.03 8.3 1.55 6.7 8.18 2 16.33-34.1 7.42-20.8-7.47 3.3 0.71 9.3-0.74 14.1-0.71zm510.3 327.89c43.7 0.32 86.7 10.98 129.9 16.57 54.5 8.1 111.4 15.67 165.2 14.54-52.2 11.83-106.6 19.9-159.5 8.49-68.1-7.66-136.2-27.37-205.3-15.31-36.4 6.62-65.3 34.12-101.4 40.21-5.6-3.59-18.2 2.29-20-4.08 15.3-1.7 29.8-7.32 43.6-13.92 36.9-23.84 79.1-41.58 123.2-45.52 8.2-0.75 16.3-1.04 24.3-0.98zm-366.1 17.88c55.7 35.05 121.9 46.23 184.2 63.39-1.5 20.96-18.6 39.64-14.5 62.54 5.7 22.8 31.5 30.07 52.1 32.2 28.6 2.65 63.2-4.6 79.1-31.01 8.1-13.57 8.2-29.77 12-44.68 43.1 1.69 86.1 3.33 129.3 2.39-0.7 13.71-4.3 27.22-3 41.04-0.1 18.47 0.3 42.09-1.9 58.72 5.1 47.79 15 97.07 42.7 137.56 33 49.59 78.7 88.93 112.4 137.89-29.7 21.6-38.6 69.1-21.2 102.4 12.4 9.4 14.6 26.1 27.3 35.2 8.5 7.4 22.2 3.9 28.7 14.4-1.7 26.9 5.9 54.1 0.7 80.8-7.2 19.3-24.1 38.4-46.1 38.9-83 11-166.5 22.9-250.4 20.3-26.5-2.2-52.5-10.1-76.4-21.5 5.2-18.4 6.4-41 18.4-55.6 7.2-15.1 19-26.8 29.7-39.3 19.3-23.3 7.3-56.6-8-78.6-11.2-12.6-22.2-33.2-42.2-29.4-25.9 5-49.6 15.9-73.1 27.1-16.2 11.7-33.9 22.7-45.1 39.7-3.5-1.3-5.3-8.5-10.2-6.2-16.9 12.8-14.2 35.5-20.3 53.8-16.4 1.7-23.3-17.4-34.4-26-45.1-40.1-67.7-100.3-73.6-158.6-3.7-51.19-5.8-102.24-19.3-153.14-1.2-29.03-11.6-56.82-23.3-83.17-13.5-28.25-12.1-60.51-2.2-89.73 0.2-30.65 20.4-57.86 25.6-88.07 4.3-15.9 11-31.69 23-43.33zm359.2 13.63c51.9 0.55 102.5 16.77 154.3 19.78 11.8-0.25 11.8 21.23-1.3 20.04-66.5 29.6-136.3-27.22-202.4 0-6.2-11.08-11-23.36-15-35.04 13.1-5.35 28.1-2.61 42.1-3.97 7.4-0.65 14.9-0.89 22.3-0.81zm-74 7.56c1 0 1.9 0.07 2.8 0.21 2.2 14.54 12.2 26.66 12.4 41.64 4.1 29.21-1.1 69.79-34.2 79.64-14.8 7.62-39.7 4.94-55 3.47-14.6-1.57-34.6-12.27-30.3-30.01-3.9-14.61 8.2-24.24 11.3-36.98 7.1 0.69 30.2-0.59 23.7-13.04-10 1.92-25.1 7.02-18.4-10.79 25.3-1.78 46.1-18.31 68.8-27.75 5-3.28 12.2-6.42 18.9-6.39zm340.6 9.69c8.6-0.47-3 19.82 5.6 16.53 3.6 23.58 2.4 47.91 1.6 71.55-14.9 14.06-37.4 16.98-57.1 17.06-25.2 7.81-50.7-15.24-45.1-41.06 5.1-14.78 3.5-38.32 1.6-58.71 21.4-0.92 42.9 1 64.3-0.98 1.3-2.9 20.3-3.65 28.2-4.28 0.3-0.06 0.6-0.1 0.9-0.11zm-1005.7 155.03c-9.1 21.7-6.5 45.67-6.2 68.57 4.3 30.88 29.3 54.8 31.8 86.36-1.3 34.49 13.3 66.71 26.7 97.7 15 33.1 50.8 51.1 65 84.4 2.1 4.6 6.4 9.4 12.2 6.6-0.4-19.7-20.4-35.1-33.6-50.8-30.5-25.5-48.8-63.2-57.3-101.51-2.8-30.79-4.5-63.49-22.7-89.8-16.3-22.7-15.6-54.38-10.3-81.47 1.8-6.13 2-12.57 2-18.88-1.9-0.3-5.7-0.88-7.6-1.17zm-73.9 31.44c-0.4 0.01-0.7 0.04-1.2 0.08-13.7 19.91-13.1 45.72-10.2 68.73 14.9 60.04 70.9 96.97 94.9 152.58 29.6 50.1 16.1 119.3 62.7 159.7 3.8 4.6 13.6-1.1 8.5-5.8-11.5-10-20.8-22.1-26.3-36.3-8.8-19.6-10.6-41.6-16.2-62.3-9.9-21-13.5-36.1-18.6-54.2-16.6-49.27-62.1-80.6-84.9-126.21-12.9-22.83-18.6-52.49-8-76.72 2.9-6.15 10.6-19.85-0.7-19.56zm662.7 22.83c-5.9 1.11-4.6 8.6-0.2 10.82 35.7 22.36 58 60.23 72.4 98.85 28.1 77.09 37 159.39 59.3 238.09 1.7 6.1 9.2 4.9 10.5-0.9-16.3-61-26.7-123.5-42.3-184.7-16.4-61.06-40.2-131.39-99.7-162.16zm-1508.6 10.83c-1.75-0.02-3.71 1.62-5.52 5.83 1.82 53.79-7.55 109.42-36.59 155.69-7.85 18.61 7.65 30.81 21.27 38.81 15.99 9.1 25.28 25.5 34.38 40.8 22.77 36.7 20.28 82.6 17.55 123.9-2.4 4.5 3.23 16.4 7.9 9.1 6.03-64.1-3.56-139.5-56.83-182.9-12.6-4.5-24.37-13.9-15.01-28.46 26.34-42.95 35.2-95.09 36.72-144.56 3.83-7.13 0.63-18.13-3.87-18.21zm1669.8 25.76c-1.6 0.08-3.3 0.96-5.2 2.93 13.7 20.28 24.5 42.75 31.3 66.2 5.9 58.25 34.8 110.34 61.2 161.44 3.7 6.8 9.2-2.7 8.1-7.1-4.2-10-10.4-19-14.4-29.1-5.4-7.9-9.5-16.6-13.8-25.1-10.9-23.97-20.5-50.95-26.4-77.4-7.6-22.3-10.5-46.29-21-67.58-6.8-4.14-11.4-23.57-19.1-24.28-0.2-0.02-0.4-0.02-0.7-0.01zm278.2 130.6c5.4 2.83 9.1 9.89 9 16.09 25.1 51.48 14.7 116.98-24.6 159.28-12.2 6.4-28.4 0.4-34.5-11.6-9.3-24.2-33-48.8-19.3-76.1 19-14.2 31.2-35 37.4-57.5 3.7-14.76 16.5-28.54 32-30.17zm-395.7 130.27c15.7-0.3 27.9 15.4 36.3 29.6 12.4 18.2 22.4 47.6 3.5 65.1-16.3 12-22.3 32.2-35.8 46.7-7.5 8.2-20.8 1-29.2 6.1-1.1 14.7 27 1.4 18.9 18.2 0.3 4-2.7 8.9-7 9.2-18.6 6.2-31.3-17.6-47.2-24.7-22.3-11.7-34.3-41.1-62.8-39.5-10.4-11.4-10.2-33.1-4.2-46.3 8.7 17 25.3 28.6 44.7 28.9 4.8-14.6-19.2-8.2-26.5-20.9-3.2-0.3-2.2-4.3-0.4-5.7 19.7-34.5 57.9-54.4 95.7-62.2 5-3 9.6-4.4 14-4.5zm-408.9 131.9c26.1 56.8 59.8 111.8 74.5 173.4-4.5-0.7-10.5 1-8.6 7.5 10.5 8.2 24.8 4.3 36.4 9.4 17.6 5.1 28.5 20.9 42.7 31.2 3.5 1.9-2.1 7.7-5 3.9-14.4-0.2-27.1 7.6-37.5 16.7-17 2.3-34.4-7.3-50.9-0.1-23.3 6.6-40.5 27.3-42.5 51.4-15.6 2.3-31.4 3.1-46.7 7.1-22.3 4.5-46.6 14.4-68.7 3.6-13-13.8-31.7-18.7-48.7-25.5-3.3 1.1-10.4-0.6-4.9-3.5-22.6-4-41.1-27.7-31.1-51.8 8.1-22.8 2.2-53.7 0.3-72.1 61-2.4 119.3-37.4 154.5-87 12.4-21.2 27.5-40.9 36.2-64.2zm-1068.3 142.5c-8.44-0.2-9.95 11.8-14.08 17.9-13.83 16.1-37.25 20-57.35 18.7-7.45-0.8-25.73-6.4-21.1 6.5 34.85 13 88.87-2.4 96.6-42.3-1.52-0.6-2.86-0.8-4.07-0.8zm55.79 57.9c2.39 0.8 10.69 1.5 6.55 4.9 30.45 16.9 63.49 31.5 99.37 28.9-2.47 8.2-19.15 9.6-20.25 22-28.24-8.9-59.44-14.1-86.88-20.7 11.94-3.3-17.79 0.9-8.31-9.2 6.96-7.2 7.22-17 9.52-25.9zm1165.7 34.4c20.9 0.1 28.9 40.9 5.2 44.4-7.4-0.4-32.3 8.6-30.9-7.6-2.4-10.4-27.9-26.3-3.7-31.1 6.1-7.4 17.7-4.6 26.2-5.4 1.1-0.2 2.2-0.3 3.2-0.3zm-1039.5 3.3c7.49 0.2 15.05 2 19.58 2.4 18.66-4.1 40.43 7.5 38.81 28.2-26.73-0.6-59.06 0.9-83.2-5.9-12.29-1.4 0.66-13.3 5.71-17.7 4.21-5.8 11.62-7.2 19.1-7zm86.64 3.9c20.22 0.3-18.23 38.4-18.24 14.8-3.79-9.4 9.1-13 16.1-14.7 0.78-0.1 1.49-0.1 2.14-0.1zm-409.59 4.4c15.8-0.1 33.03 7.7 28.85 27.3 14.07 6.3-8.76 49.7 11.24 52.3 9.92-16.1-7.18-43.5 5.15-57.1 20.44-18.5 54.19-10.5 64.02 15 8.04 3.2 3.8 20 11.7 19.6 5.35 15.3-12.45 17.2-22.69 17.8-13.3 6.1-30.67 4.3-45.47 6.5-10.15 2.6-25 1.3-37.2 0.9-27.74-1.2-56.7 4.5-83.67-3.7 1.45-31.9 18.68-70.5 53.6-76 4.1-1.6 9.2-2.6 14.47-2.6zm1293.4 3.1c18.1 0.1 32.1 16.8 35.5 33.2-16.2-1.6-29.6 3.4-45.5 3.2-17 2.8-35.3 5.9-52.7 5.2-1.7-24.9 29.1-46.5 52.4-39.7 3.5-1.3 7-1.9 10.3-1.9zm-1149.4 5.9c-2.32 16.7 7.48 38.1-7.51 51-1.43 2.2-5.54 4.2-6.13 0.3-3.43-15.5-16.16-26.7-21.16-41.2 4.85-6 14.61-7.8 22.08-9.6 3.18-0.1 9.55-0.4 12.72-0.5zm841.24 70.5c2.9 0.1 5.6 0.8 7.8 2.3-0.2 19.5 2 44-5.1 60.4-1.5 4.7-1.2 19.9-8 18.4-0.2-19-5.6-36.3-16.8-51.7-15.6-11.7 6.5-29.7 22.1-29.4zm-54.8 17.4c4.1 0 8.1 0.7 12 2.1 16.6 21.7 31.3 40.5 28 69.6-20.2 5.3-41.5 8.3-62 14-4.7 4.6-26.4 5.8-17.9-10 0.4-11.9-13.2-35.5-1.9-47.3 6.6-16.8 24.3-28.6 41.8-28.4zm-96.2 27.4c14.1 0.2 27.9 6.3 36.2 18.5 11 12.7 11.2 30 10 45.9-16.7 0.7-33.4-0.4-50 0.5-22.9-0.9-45.7 0.5-68.52-0.6 1.06-21.9 22.32-38.4 38.32-51.2 9-8.8 21.6-13.3 34-13.1z" transform="scale(.8)"/>
</svg>
