<?xml version="1.0" encoding="UTF-8" standalone="no"?>
<svg
   xmlns:dc="http://purl.org/dc/elements/1.1/"
   xmlns:cc="http://creativecommons.org/ns#"
   xmlns:rdf="http://www.w3.org/1999/02/22-rdf-syntax-ns#"
   xmlns:svg="http://www.w3.org/2000/svg"
   xmlns="http://www.w3.org/2000/svg"
   xmlns:sodipodi="http://sodipodi.sourceforge.net/DTD/sodipodi-0.dtd"
   xmlns:inkscape="http://www.inkscape.org/namespaces/inkscape"
   version="1.1"
   id="Layer_1"
   x="0px"
   y="0px"
   viewBox="0 0 684.62997 825.98663"
   enable-background="new 0 0 1920 1920"
   xml:space="preserve"
   inkscape:version="0.48.4 r9939"
   width="100%"
   height="100%"
   sodipodi:docname="Birds-Silhouettes-Owl.svg"><metadata
     id="metadata37"><rdf:RDF><cc:Work
         rdf:about=""><dc:format>image/svg+xml</dc:format><dc:type
           rdf:resource="http://purl.org/dc/dcmitype/StillImage" /><dc:title></dc:title></cc:Work></rdf:RDF></metadata><defs
     id="defs35" /><sodipodi:namedview
     pagecolor="#ffffff"
     bordercolor="#666666"
     borderopacity="1"
     objecttolerance="10"
     gridtolerance="10"
     guidetolerance="10"
     inkscape:pageopacity="0"
     inkscape:pageshadow="2"
     inkscape:window-width="1855"
     inkscape:window-height="1056"
     id="namedview33"
     showgrid="false"
     units="in"
     fit-margin-top="0.25"
     fit-margin-left="0.25"
     fit-margin-right="0.25"
     fit-margin-bottom="0.25"
     inkscape:zoom="0.34766083"
     inkscape:cx="283.37136"
     inkscape:cy="94.112659"
     inkscape:window-x="65"
     inkscape:window-y="24"
     inkscape:window-maximized="1"
     inkscape:current-layer="Layer_1" /><path
     d="m 173.94872,27.052676 c 15.01,-1.97 30.02,-5.53 45.25,-4.22 13.52,1.01 27.4901,3.82 38.76,11.79 7.48,5.68 14.52,11.94 22.28,17.27 15.68,-7.44 33.47,-7.86 50.49,-7.01 14.44,1.14 28.78,3.35 43.03,5.93 1.1801,0.19 2.4301,0.41 3.6,-0.06 15.89,-6 31.03,-13.79 46.71,-20.29 14.5701,-6.26 30.9401,-6.44 46.41,-4.18 8.13,1.29 16.48,2.24 24.02,5.78 7.51,3.26 14.4399,8.87 17.39,16.73 2.63,6.18 1.7,13.02 2.45,19.54 0.87,9.7 3.62,19.08 6.45,28.36 3.3301,13.870004 2.15,28.330004 0.7001,42.370004 -1.09,7.61 -1.62,15.42 -4.26,22.7 -3.08,8.71 -10.03,15.74 -18.42,19.46 -13.45,6.17 -28.6699,6.12 -43.1499,5.3 -1.02,20.26 -2.63,40.86 -9.28,60.17 -1.78,5.88 -5.8301,10.74 -7.4601,16.68 -4.71,13.92 -13.2599,27.62 -26.9199,34.16 -4.02,2.2 -8.63,2.75 -12.8301,4.38 -0.96,3.99 -2.71,10.33 2.1001,12.49 7.5,3.14 15.87,2.32 23.8099,2.29 9.97,-0.81 20.0701,-1.06 29.9,-3.03 6.55,-3.17 12.15,-8.01 18.14,-12.09 7.5699,-5.18 14.4,-12.11 23.6,-14.28 4.8101,-1.28 10.03,-0.19 14.01,2.79 2.35,2.21 5.01,-0.68 7.13,-1.84 13.16,-9.64 25,-20.94 36.8099,-32.16 8.2101,-8.14 16.51,-16.32 23.29,-25.73 4.62,-6.1 5.71,-13.85 8.09,-20.9301 2.1901,-6.96 3.17,-14.94 8.8,-20.16 3.48,-3.39 8.64,-3.73 13.23,-3.64 2.6801,-0.04 5.24,2.12 4.99,4.94 -0.4199,9.91 -9.4,17.03 -9.6799,27 -0.52,6.14 4.1899,11.47 9.71,13.47 7.73,-0.34 15.04,-3.39 22.0699,-6.4 5.2401,-2.16 10.1101,-5.81 15.9801,-5.95 4.59,-0.28 9.23,2.66 10.9399,6.93 -0.45,3.47 -3.24,5.96 -5.54,8.35 -6.7999,6.34 -14.49,11.61 -22.1399,16.85 -13.91,9.03 -27.79,18.1 -41.28,27.75 -10.27,7.35 -20.61,14.68 -29.89,23.28 3.11,8.71 5.35,18.63 1.67,27.54 -3.02,7.6 -10.03,12.58 -17.17,15.95 2.46,1.92 5.73,4.51 4.54,8.1 -1.9901,5.54 -7.16,9.98 -13.12,10.53 1.2799,1.72 3.5199,3.94 1.75,6.14 -3.88,4.49 -10.1001,6.03 -15.67,7.27 -1.54,1.22 -2.46,3.18 -4.39,3.91 -6.77,2.9 -13.5,6.38 -20.9399,7.11 -2.1001,0.3 -4.26,0.15 -6.3101,0.64 -7.4,6.21 -14.1801,13.13 -21.22,19.75 -24.61,23.1 -46.51,49.31 -63.3201,78.65 4.6001,6.9299 3.05,15.73 1.0601,23.2799 -4.6,16.2201 -12.8,31.12 -21.27,45.5901 -10.12,16.88 -20.97,33.36 -33.01,48.9399 -10.92,13.98 -22.56,27.38 -34.7,40.3 -6.21,6.8199 -13.2,12.88 -20.52,18.47 -7.18,5.22 -15.05,10.5 -24.23,10.85 -3.84,1.84 -6.84,5.12 -9.99,7.9601 -13.75,13.11 -22.07,31.08 -25.47,49.6 -4.26,22.88 -12.57,45.1 -25.26,64.65 -1.06,1.25 -1.55,3.6399 -3.61,3.3899 -2.66,-0.02 -4.17,-2.63 -4.94,-4.83 -4.08,-12.66 0.8,-26.84 -4.88,-39.09 -5.16,1.1699 -8.51,5.5499 -11.86,9.28 -7.21,8.1799 -12.64,17.8199 -20.54,25.4199 -5.95,5.8301 -13.19,11.13 -21.7,12.11 -3.47,0.2201 -7.24,0.2001 -10.35,-1.5 -2.12,-3.2999 -0.21,-7.36 1,-10.64 7.13,-15.9099 18.71,-29.1799 28.78,-43.24 11.63,-14.34 17.2,-32.24 25.4,-48.5299 4.52,-9.12 9.59,-17.9301 14.8,-26.66 -5.6,-0.5801 -12.82,0.51 -16.79,-4.38 -0.25,-5.15 0.9,-10.41 -0.54,-15.48 -0.9301,-4.79 -4.53,-9.2201 -9.5,-10.0701 -8.04,-1.5599 -15.66,2.1901 -23.25,4.1801 -17.79,5.0599 -37.39,5.59 -54.7,-1.5 -17.069999,-6.73 -30.819999,-19.84 -41.379999,-34.5601 -11.61,-15.6799 -19.86,-33.63 -25.68,-52.1899 -7.01,-22.46 -10.57,-45.86 -12.26,-69.28 -1.59,-25.55 -1.72,-51.27 1.07,-76.75 2.88,-25.64 8.79,-51.22 20.08,-74.54 12.45,-23.06 27.66,-44.54 43.9901,-65 21.489999,-26.94 45.059999,-52.31 71.219999,-74.78 6.76,-5.91 14.28,-10.98 20.34,-17.65 1.62,-1.97 3.62,-4.14 3.41,-6.88 -1.53,-2.04 -4.48,-1.52 -6.66,-2.26 -12.14,-2.99 -23.55,-8.26 -34.96,-13.25 -9.79,-4.84 -19.53,-11.13 -25.37,-20.62 -3.66,-5.7 -3.88,-12.65 -4.61,-19.17 -1.17,-16.26 4.47,-32.070004 11.57,-46.420004 5.8,-13.71 13.59,-27.3 25.92,-36.12 7.0598,-5.2298 15.6298,-7.9898 24.2798,-9.0098 m 231.52,196.770004 c -7.88,3.04 -7.79,12.68 -8.96,19.69 -1.77,6.66 4.1,11.66 4.59,18.05 1.17,4.48 -1.79,10.88 3.11,13.74 3.8201,1.52 8.36,1.9 12.3201,0.68 3.45,-1.52 1.4399,-5.73 1.6899,-8.54 -0.13,-6.09 4.64,-10.44 7.6901,-15.12 -0.07,-8.28 -0.4701,-17.28 -5.2101,-24.38 -3.22,-4.94 -9.97,-6.21 -15.23,-4.12 z"
     id="path9"
     inkscape:connector-curvature="0"
     style="stroke:#000000;stroke-width:0.0938" fill = "#72A8BA"/></svg>
