<?xml version="1.0" encoding="utf-8"?>

<!DOCTYPE svg PUBLIC "-//W3C//DTD SVG 1.1//EN" "http://www.w3.org/Graphics/SVG/1.1/DTD/svg11.dtd">
<svg version="1.1" id="Layer_1" xmlns="http://www.w3.org/2000/svg" xmlns:xlink="http://www.w3.org/1999/xlink" x="0px" y="0px"
	 viewBox="0 0 1920 1920" enable-background="new 0 0 1920 1920" xml:space="preserve">
<g fill = "#631CB3" >
	<path d="M353.16,131.04c31.21-7.659,73.076,10.895,86.75,41c2.27,4.63,2.64,10.05,5.75,14.29c2.41,3.36,4.63,6.86,6.28,10.67
		c3.05-1.15,5.84-2.85,8.68-4.43c4.36-2.41,9.59-1.24,14.22-2.8c9.63-3.02,18.44-8.65,28.57-10.11c2.71-0.39,5.52-0.3,8.14-1.2
		c23.805-8.792,39.084-6.277,45.25-7.73c2.16-0.28,2.6-2.76,3.74-4.24c1.43-2.58,5.26-1.62,7.07-3.79c0.95-1.06,1.74-2.27,2.84-3.19
		c28.022-2.152,38.649,12.44,55.49,13.09c10.84,0.13,21.71,1.42,32.12,4.53c1.13-3.29,1.6-6.86,3.37-9.89
		c5.276-4.807,26.525,17.956,32.02,22.32c7.16,5.71,17.32,4.8,24.54,10.46c14.53,11.28,34.19,12.22,49.02,22.97
		c3.32,2.25,5.76,5.72,9.57,7.26c1.19-3.47,1.8-7.1,2.81-10.62c3.67,2.71,4.63,7.49,6.56,11.4c2.18,6.04,6.41,10.97,9.23,16.69
		c11.686,22.651,7.279,19.198,11.82,24.26c7.341-4.507,26.257-19.318,62.81-9.79c22.54,5.863,46.076,19.884,51.73,28.88
		c-11.93-5.84-24.85-9.55-37.98-11.43c-19.678-2.225-18.056,2.155-22.56,6.74c4.17,3.03,7.43,7.08,10.09,11.48
		c25.646-2.218,57.903,44.287,93,58.07c-10.835-1.528-50.545-15.788-67.79-24.14c-4.64-2.24-9.87-0.77-14.49,0.68
		c59.159,20,17.38,20.467,114.25,82.4c-24.39-9.48-48.09-20.69-72.14-30.98c12.785,13.851,27.144,29.489,29.13,54.66
		c-1.013-0.934-33.063-31.82-53.16-43.84c7.14,9.61,16.52,17.5,22.68,27.85c-2.3-0.37-4.56-0.87-6.83-1.34
		c21.525,16.845,44.057,43.121,50.31,68.69c-17.729-27.834-28.125-38.544-57.04-49.95c4.06,5.93,9.7,10.87,12.37,17.67
		c8.999,23.401,28.478,50.066,43.8,70.04c-23.147-9.052-25.429-13.781-33.35-20.69c2.806,5.583,18.822,29.345,10.28,59.11
		c-2.941,21.183,24.714,58.503,37.04,76.82c-29.643-22.775-35.422-1.634-51.52-79.97c-0.05,4.17,0.15,8.46-1.2,12.47
		c-0.83,2.8-2.28,5.57-1.8,8.58c1.32,10.85,6.7,20.97,6.76,32.01c-2.154,16.732,16.53,30.387-2.95,58.44
		c-2.14,2.46-0.29,5.7-0.37,8.55c1.812,29.322-65.084,42.307-7.79,64.75c52.902,20.34,61.496,17.469,81.43,20.83
		c7.25,1.27,14.83,1.58,21.65,4.61c-1,2.59-2.41,5.01-3.63,7.51c13.648,1.719,37.006-9.165,46.86-8.28
		c0.85,4.27-1.33,8.17-3.04,11.91c20.643-0.848,38.165-3.423,49.64-13.62c38.306,14.261,59.569,0.12,94.77-21.99
		c-5.573-15.982-30.738-68.976,1.25-132.52c40.086-72.261,132.679-82.919,149.96-78.34c25.296,5.764,93.425-21.021,115.93-34.7
		c-6.574,37.001-105.665,42.248-134.43,57.51c-47.986,24.917-83.876,78.386-64.98,97.76c2.63-9.94,0.67-20.68,4.37-30.38
		c17.084-38.005,62.659-51.365,81.55-61.51c8.7-4.59,17.54-9.18,27.13-11.64c12.197-3.154,35.849-2.819,39.47-2.19
		c0.1,0.27,0.3,0.8,0.4,1.07c-7.25,5.33-15.73,8.81-24.22,11.65c-11.209,4.783-42.242,32.389-36.02,48.78
		c7.795-2.281,21.102-19.47,36-32.87c51.244-40.821,133.684-54.148,198.75-35.45c33.464,9.109,88.886,34.225,111.26,60.72
		c34.146,41.818,50.106,94.696,52.18,113.08c25.626,12.813,65.475,71.113,61.7,110.32c-1.456,16.142-9.262,24.431-20.1,32.04
		c26.772,54.652,50.004,55.051,20.4,264.25c-17.139,120.168-15.348,97.78-73.3,307.78c5.057-70.165,35.892-172.879,34.21-296.87
		c-3.96,73.87-36.761,172.433-44.37,185.91c8.384-44.844,32.454-143.367,27.45-187.25c-15.291,124.466-41.414,156.115-52.16,240.46
		c-12.637-64.08,43.401-153.833,27.94-256.52c-12.388,81.213-41.369,183.992-67.19,247.3c2.278-24.237,8.213-75.661,7.47-95.22
		c-5.983,50.139-32.804,185.909-38.09,200.38c-2.879-50.78,6.345-141.376-1.99-174.59c-19.254,97.087-20.507,236.346-48.96,321.36
		c3.464-72.87,8.95-149.007,7.07-204.23c-13.249,67.415-46.475,170.651-53.11,178.63c-2.651-23.662,12.413-49.598,16.49-90.62
		c-18.581,34.922-31.177,58.886-49.76,153.42c-1.23,7.22-2.93,14.41-3.31,21.74c3.099,22.95,1.435,33.587-11.37,56.61
		c-12.126,19.358-45.049,44.989-77.94,54.04c-19.547,4.601-17.744-0.504-30.25-3.97c-6.002-1.768-25.016,5.307-44.78-3.26
		c-7.48-3.12-13.93-9.46-15.03-17.78c-13.274-5.784-6.612-25,0.36-37.66c8.11-14.97,25.29-21.45,35.14-34.93
		c5.43-7.69,4.97-17.53,6.73-26.39c2-14.84,5.3-29.99,2.71-44.95c-44.076,38.053-105.422,59.06-131.15,54.09
		c-9.27-1.43-18.74-0.82-27.98-2.42c-3.85-0.32-5.76-4.17-9.09-5.58c-10.049-5.048-16.251-11.075-16.13-24.72
		c-0.574-40.199,15.882-43.798,58.2-59.68c4.761-1.173,28.795-62.716,14.74-94.52c-2.93-6.64-4.36-13.89-7.62-20.35
		c-7.3-6.79-13.58-14.55-20.5-21.7c-3.08,11.12,1.47,22.29,2.78,33.33c-13.439-0.755-36.399-29.651-47.39-55.53
		c-2.35-5.2-3.53-10.85-6.02-15.98c-2.626,18.691,0.416,72.64-3.31,85.07c-8.336-8.045-21.518-45.619-29.13-65.44
		c-5.49,6.59-7.65,15.19-8.17,23.59c-8.03,33.247-2.993,30.913,1.26,54.06c-14.229-15.566-14.063-32.102-10.72-53
		c-6.88,6.46-17.54,8.51-22.09,17.37c-7.87,13.27-5.12,29.39-9.45,43.7c-48.689-62.163-27.51-58.721-35.49-73.44
		c-5.7,23.06-10.55,46.35-15.84,69.52c-25.171-7.236-35.246-50.937-48.27-84.02c3.216,24.308,8.453,56.679,8.21,62.65
		c-8.58,0-21.579-26.813-35.86-51.85c-0.633,14.014-2.67,63.889-6.82,76.4c-4.751-7.056-12.101-37.161-13.15-52.26
		c0.1-12.74,2.23-25.81-0.86-38.35c-10.452,25.325-28.466,65.982-31.71,70.97c1.129-19.082,6.698-64.529-5.98-69.09
		c-2.361,1.627-25.383,87.419-36.76,90.49c-1.6-1.15-0.89-3.11-0.73-4.7c2.18-12.6,6.03-25.31,4.35-38.2
		c-1.33-6.51,1.53-12.94,0.87-19.49c-3.16,4.34-4.58,9.79-8.4,13.69c-5.13,5.57-13.06,6.47-19.71,9.32
		c-20.646,8.88-14.37,7.285-57.78,61.22c-1.25,1.67-2.97,2.88-4.89,3.65c0.592-13.162,16.756-41.388,13.99-60.65
		c-37.892,85.446-38.839,66.783-56.88,94.19c-2.56,3.65-4.45,7.74-7.15,11.31c4.701-16.995,19.503-39.723,11.57-48.72
		c-3.494,32.534-43.915,84.975-52.72,92.62c3.64-15.34,9.26-30.15,13.24-45.4c-61.376,110.346-23.77,157.142-86.79,190.33
		c-6.75,3.77-13.04,9.23-21.11,9.75c-8,1.08-15.13-4.02-23.06-3.67c-24.936,0.453-52.572,12.966-54.54-6.6
		c-7.999,0.41-23.518-14.153-28.04-19.1c-5.769-8.471-6.896-24.534,6.06-42.07c11.06-14.12,21.42-29.21,35.99-40.01
		c12.116-31.454,16.194-136.522-9.07-216.84c-8.14,21.73-16.28,43.48-25.18,64.9c-11.413-32.982-14.627-79.449-47.46-90.52
		c-5.28,9-10.01,18.31-15.12,27.42c-5.16-9.31-9.04-19.25-14-28.65c-14.257,1.698-2.251,84.558,4.47,88.25
		c4.44,2.74,7.62,6.95,11.15,10.71c16.918,18.962,22.623,28.537,4.81,85.31c-7.276,10.822-30.336,27.817-55.18,25.65
		c-8.725,11.41-23.031,6.39-33.73-2.86c-9.7-9.74-12.56-23.73-18.34-35.76c-6.862-12.991-16.257-65.577-23.85-82.06
		c-6.1-13.33-14.8-25.2-22.31-37.71c-3.53-9.13-5.87-18.69-8.95-27.98c-20.151-70.877-11.356-69.845,29.46-148.17
		c-15.186-20.29-32.052-36.967-34.77-58.48c-5.812,7.526-10.053,28.004-14.67,43.36c-10.541-36.92-17.034-64.134-15.87-90.51
		c-7.662,9.446-20.372,31.024-11.62,39.53c-1.3,2.08-3.34,6.62-6.28,4.01c-3.88-4.21-5.01-10.13-6.51-15.48
		c-7.62-33.678-6.273-61.051-2.45-89.92c-4.58,7.32-7.37,15.62-12,22.92c-4.285-12.947,6.059-75.74,14.06-89.47
		c2.94-4.08,2.2-9.39,3.11-14.1c1.28-8.93-0.9-17.75-3.05-26.34c-3.838-22.862-2.782-57.119,14.37-73.17
		c15.761-27.756,4.041-43.565,9.5-75.59c1.24-4.6-1.89-8.58-3.1-12.79c-4.78-13.16-3.15-27.4-5.36-41.01
		c-0.79-4.28-1.06-8.63-0.86-12.97c-6.642,7.11-24.816,15.012-23.97,51.85c0.272,31.762,13.15,62.318,12.42,75.93
		c-7.816-9.399-42.53-66.724-45.31-150.19c-42.657,48.586-21.63,103.679-16.91,129.43c-41.531-59.029-15.784-128.788,27.17-187.05
		c6.263-9.049,13.564-10.845,11.02-21.79c-26.935,11.363-80.96,68.019-139.21,75.73c34.901-20.32,102.121-44.027,94.9-117.73
		c-1.114-19.26-21.196-41.966-32.6-54.51c-13.397-15.651-26.673-26.393,5.11-90.49c6.38-13.063,12.579-13.891,30.72-38.07
		c-34.596-61.36-0.136-157.698,69.28-169.18c-34.664-13.494-74.717,32.15-91.13,42.03c40.809-43.329,57.66-46.663,77.61-57.38
		c0.92-6.15,1.22-12.39,2.5-18.48c8.11-29.911,59.579-43.741,63.4-45.19c-9.941-4.878-50.105-6.596-79.87,12.79
		c-4.84,3.01-8.89,7.06-13.34,10.58c10.411-34.652,48.838-37.151,68.69-52.26c17.947-12.399,75.346-2.818,97.97-7.56
		c-3.345-17.47-74.931-16.808-98.59-3.65c10.052-12.559,49.149-33.175,92.48-27.74c17.85,2.79,33.78,11.79,49.53,20.11
		c-3.598-7.587-28.644-45.713-48.63-48.25c-9.145-1.245-17.076-7-30.68,19.79C339.848,135.923,341.718,134.078,353.16,131.04
		 M653.98,185.7c-7.86-2.37-16.01-3.44-24.1-4.71c3.66,4.42,6.88,9.18,10,14c2.17-1.01,4.8-2.76,7.12-1.07
		c4.69,3.11,21.778,33.967,28.75,39.33c7.474,5.953,14.781,24.556,20.07,34.86c1.02,2.39,3.69,3.13,5.72,4.42
		c5.36,2.976,9.582,8.547,18.5,28.57c-2.76-2.98-4.9-6.46-7.65-9.45c0.178,5.482,11.584,29.794,13.99,34.63
		c-2.789,18.127,3.29,18.339,4.98,23.36c2.959,8.014,6.975,27.135,5.95,37.28c-1.15-1.25-2.22-2.54-3.27-3.84
		c1.94,12.77-3.65,24.89-8.87,36.17c-2.05,4-3.42,8.34-5.81,12.15c-7.469,8.952-22.566,11.7-28.54,25.44
		c-1.33,2.86-1.72,6.05-3.01,8.92c-1.87,3.65-5.68,5.89-7.44,9.61c-1.22,3.94-0.49,8.46-2.94,12.02
		c-3.748,6.537-28.69,14.837-40.5,37.56c-7.048,12.652-2.075,21.599-22.52,33.46c-7.792,4.138,2.193,13.613-18.27,20.66
		c-33.94,9.864-61.479-8.613-72.15-9.56c-8.113,2.847-5.791,7.22-64.13,12.11c7.615,1.859,19.909,1.841,32.8,11.57
		c-18.14,4.57-36.64,7.66-54.77,12.28c8.09,2.71,16.53,4.45,24.36,7.86c-24.432,11.743-24.929,9.541-24.9,19.25
		c9.52,0.36,19.36-5.86,28.56-0.79c-12.12,4.84-24.76,8.27-37.06,12.63c5.17,2.79,10.73,4.76,15.96,7.44
		c-27.883,23.188-25.343,16.642-27.41,26.54c-3.9,23.607-1.788,60.813,11.17,69.97c1,0.724,104.529-10.057,147.45,26.59
		c9.74,7.845,0.027,5.6,23.21,10.54c125.195,22.659,67.866-29.879,155.8-33.93c10.53-0.71,19.71,5.67,29.97,6.8
		c8.62,1.475,26.004-10.89,27.92-13.42c28.734-67.585,18.096-34.071,32.47-86.55c11.988-43.908,12.872-56.021,9.59-72.4
		c-4.093-20.438-17.696-49.202-31.32-60.71c-3.56-3.11-7.73-5.55-10.78-9.21c-2.51-2.78-4.61-6.28-8.25-7.7
		c-3.67-1.33-7.46,0.53-11.19,0.28c-3.06-0.8-3.31-5.52-1-7.28c12.796-11.033,0.957-14.619,2.78-21.15
		c3.136-17.347,12.466-28.251,14.23-31.3c-17.153,12.176-16.758,15.255-17.49,44.12c-1.193,11.588-7.322,2.983-16.86,18.2
		c1,4.22,3.56,7.97,4.13,12.34c2.18,14.075,0.664,30.501,3.73,35.39c2.5,1.55,5.5,2.3,7.66,4.41
		c12.255,11.818,14.964,48.136,17.86,66.42c1.35,10.272,17.23,18.341,15.12,26.87c-8.564-0.169-23.131-12.33-25.9-26.12
		c-8.707-40.361-1.048-78.483-42.28-55.14c-51.592,31.373-34.308,44.812-65.62,73.37c-7.77,7.02-15.49,14.45-25.08,18.96
		c-23.666,11.932-59.696,26.77-72.99,3.19c-0.5-2.9,3.22-3.24,5.29-3.29c4.22-0.32,6.35,4.36,10.29,5.07
		c12.034,2.828,43.196-6.329,53.28-13.11c59.994-39.618,31.413-66.893,100.43-100.59c3.34-1.87,8.78-1.63,9.82-6.15
		c3.07-14.99-1.65-30.09-6.56-44.14c-4.09-5.75-11.26-8.04-17.58-10.44c-6.14-1.71-11.07-6.16-17.3-7.63
		c-13.539-3.696-35.298,3.27-43.84-2.23c-0.69-1.95-0.4-4.05-0.38-6.06c3.11-0.66,7.01-0.17,9.19-2.99
		c5.53-6.75,8.09-15.51,14.14-21.89c13.625-13.672,31.647-20.16,50.12-13.51c7.778-14.873,17.732-50.934,18-52.8
		c-3.56,2.26-5.84,5.86-8.72,8.83c6.042-21.003,19.324-48.731,17.99-60.51c-2.01,1.47-3.56,3.41-5.06,5.36
		c6.712-17.886,18.433-50.824,16.19-69.78c-1.78-3.08-4.2-5.9-4.58-9.65c-1.34-5.5-4.71-10.21-6.26-15.63
		c-1.33-4.04-1.85-8.59-4.94-11.77c-2.05,1.86-3.73,4.23-6.25,5.49c-1.96-0.72-3.27-2.42-4.73-3.81
		c-9.123-9.654-45.442-28.637-48.69-25.33c-1.96,0.84-3.88,4.01-6.09,2.3c-4.48-3.27-6.39-9.09-11.09-12.06
		c-24.286-5.968-18.071-15.239-29.82-24.25c-2.4-1.71-5.45-3.57-8.49-2.63C661.54,179.51,658.01,183.05,653.98,185.7 M276.71,252.73
		c-16.764,6.632-46.132,29.633-29.54,42.11c6.957-27.718,21.316-37.085,42.82-40.72C286.86,249.67,280.98,251.07,276.71,252.73
		 M269.76,270.75c-5.9,4.25-9.89,10.58-12.93,17.07c-2.185,4.079,3.358,15.912,5.34,19.26c2-8.75-0.26-18.19,3.22-26.66
		c3.263-3.58,18.841-6.942,26.58-15.6C284.22,264.44,276.15,266.18,269.76,270.75 M212.57,345.54
		c-41.287,26.868-44.273,97.734-35.43,139.24c7.354-8.628,6.361-8.746,5.78-19.75c-4.834-55.33-5.539-111.815,64.66-117.05
		c-1.53-4.73-3.92-9.12-6.47-13.37C231.02,336.41,221.14,339.84,212.57,345.54 M567.26,404.2c-3.58,1.279-32.992,21.144-42.07,29
		c-4.76,4.23-11.49,3.96-17.42,4.54c6.833,8.935,25.842,24.707,38.34,43.14c11.288,18.534,63.79,20.487,84.72,10.91
		c11.276-5.13,32.315-24.48,32.99-39.37c-5.06-3.46-11-5.65-15.74-9.5c-15.832-27.839-15.399-34.939-34.41-41.64
		C598.54,396.29,581.87,398.47,567.26,404.2 M817.73,450.73c7.39,6.93,18.64,9.63,23.64,19.05c2.09,3.38-0.1,7.17-0.41,10.7
		c3.112-5.478,3.992-29.52-15.22-32.03C822.86,448.05,820,448.99,817.73,450.73 M736.05,462.02c-3.31,4.99-6.97,10.52-6.76,16.75
		c0.31,3.23,4.24,3.2,6.7,3.38c2.54,0.02,6.75,0.19,6.83-3.32c1.18-7.66,1.65-15.49,0.99-23.23
		C740.44,456.62,737.98,459.21,736.05,462.02 M767.2,475.96c0.6,4.84,2.33,10.62,7.41,12.46c2.98,1.41,6.05-0.21,8.82-1.33
		c-3.38-8.86-6.25-18.73-13.58-25.22C766.63,465.78,766.79,471.2,767.2,475.96 M822.35,467.12c-4.62,3.02-7.24,8.8-5.61,14.23
		c0.41,3.58,4.64,3.97,7.47,4.39c7.377,1.372,4.749-8.933,2.46-16.38C826.27,467.45,824.18,465.56,822.35,467.12 M827.33,504.35
		c-2.17,2.17-5.18,2.98-7.91,4.16c-0.05,0.28-0.14,0.84-0.19,1.12c5.64,3.56,10.06,8.89,16.23,11.62
		c-0.32-4.72-2.63-8.92-4.34-13.24c2.91-5.65,6.2-11.12,8.91-16.87C835.67,495.42,831.71,500.1,827.33,504.35 M1463.95,594.03
		c-39.868,1.224-113.876,56.947-172.84,97.01c63.976-20.205,173.081-58.52,235.97-28.25c71.478,33.883,64.172,144.608,46.04,221.16
		c66.969-109.087,70.805-204.842-54.29-236.57c57.459-18.921,110.603,31.307,129.15,82.08c0.495-43.836-30.383-89.662-125.55-101.92
		c-82.411-10.387-138.867,19.616-150,23.56c7.189-15.719,87.067-71.821,201.48-45.03c16.43,3.61,32.29,9.27,48.08,14.95
		C1594.707,605.298,1538.716,589.67,1463.95,594.03 M1372.61,677.62c-7.032,1.756-116.04,40.176-120.79,42.28
		c11.128-2.716,100.201-27.158,101.52-27.59c89.446-26.159,159.126,30.317,180.45,120.73c3.65-9.54,3.5-19.98,3.73-30.04
		c-0.375-37.214-8.377-44.346-11.94-50.08c13.899,3.747,28.541,49.405,32.87,62.15
		C1561.561,696.492,1460.683,654.503,1372.61,677.62 M1325,720.02c-20.69,6.3-41.08,13.63-61.06,21.91
		c19.653-4.394,68.396-24.907,129.92-0.72c70.793,29.447,34.827,121.467,7.04,159.65c26.04-11.451,111.516-180.142-23.38-189.19
		C1359.59,709.94,1342.05,715.19,1325,720.02 M836.27,716.89c-10.854,18.047-11.746,29.881-14.85,40.51
		c-8,26.485-22.778,57.859-24.13,67.4c0.032,10.277,53.564-2.573,63.63-34.79c1.77-5.13,1.15-10.63,2.13-15.89
		C869.092,741.743,852.573,711.85,836.27,716.89 M436.47,763.16c13.268,13.766,10.903,8.436,20.78,25.66
		c1.54,2.79,4.43,4.37,6.88,6.27c-17.666-3.34-56.391-16.128-69.49-28.8c-4.155,8.973-0.318,26.467-1.57,41.5
		c-5.049-8.014-11.106-27.09-20.09-32.33c-1.642,3.882-13.248,67.733,20.04,75.87c4.63,1.724,5.024-7.456,13.54-17.78
		c22.962-27.837,74.466-53.295,146.47-47.72c6.11,0.24,12.52,1.46,18.37-0.97C558.772,757.606,468.331,745.839,436.47,763.16
		 M733.86,763.8c-85.74,38.83-32.937,74.354-219.39,137.38c1.83,12.13,29.226,30.721,93.32,12.62c5.73-1.54,11.21-4.05,17.13-4.85
		c16.584-2.249,120.745-122.017,130.3-142.69C756.41,764.113,756.837,754.201,733.86,763.8 M798.36,761.45
		c-22.83,4.657-50.41,24.165-66.48,44.45c-30.009,36.435-21.221,44.461-44.21,64.8c-14.163,12.213-37.373,29.963-42.99,43.01
		c22.895,4.518,75.401-28.59,82.28-34.74c8.95-10.12,19.4-18.74,30.12-26.9c45.523-35.306,45.837-78.227,51.69-90.22
		C805.38,760.95,801.8,760.67,798.36,761.45 M1634.72,767.9c43.413,38.576,129.312,74.14,168.05,131.3
		c11.58,16.56,19.38,35.32,26.15,54.24C1832.646,868.128,1665.758,773.787,1634.72,767.9 M288.58,775.57
		c-8.886,14.825-26.523,70.695-18.57,86.04C295.267,833.603,304.05,754.707,288.58,775.57 M1203.67,786
		c4.949,12.826,41.421,39.022,50.58,49.38c-46.388-10.561-57.024-57.893-110.54-19.54c16.81,7.995,51.21,21.123,60.38,26
		c-63.717-10.13-48.12-11.487-73.5-16.93c5.679,8.273,73.875,40.522,89.32,47.95c-13.069-1.979-34.767-6.115-44.22-2.92
		c3.04,5.86,5.87,12.07,10.4,16.96c5.7,3.93,11.92,7.52,16.09,13.22c0.866,6.064-26.135,0.794-38.83,1.76
		c6.664,6.246,57.044,25.344,65.83,31.93c-17.611-2.915-67.157-22.019-94.21-30.78c46.457,21.237,113.57,46.262,147.92,98.2
		c-20.925-13.359-47.953-38.379-73.06-45.31c32.405,25.311,61.312,72.188,64.66,78.55c-2.531-0.937-87.228-40.432-95.67-43.43
		c74.033,49.023,134.771,108.891,139.48,114.13c-92.158-34.904-178.788-51.544-212.4-54.06c46.09,14.801,74.306,84.579,72.62,101.22
		c-2.98-3.571-39.41-106.709-147.84-103.16c9.309,6.125,38.778,22.008,65.15,53.98c21.99,26.62,37.21,59.32,41,93.8
		c-21.694-49.844-111.035-110.697-124.2-117.25c5.457,7.474,66.392,67.12,67.08,87.21c0.22,2.06-1.87,2.99-3.17,4.14
		c-9.149-26.643-95.718-74.176-115.92-84.23c21.187,54.395,43.781,69.981,53.46,78.07c-20.23-6.02-39.7-19.12-47.95-39.23
		c-1.432,27.3,1.921,33.754-32.61,90.89c-2.64,3.98-4.64,8.45-8.1,11.82c-5.842-14.382,3.691-36.308-10.93-48.11
		c-1.02-1.41-2.22,0.59-2.95,1.24c-47.058,56.55-57.168,47.908-75.59,60.62c40.132-51.385,31.956-75.048,30.63-91.18
		c5.588,4.104,13.189,21.006,19.17,31.34c4.55-16.8,8.37-33.79,12.97-50.57c2.06,8.04,2.17,16.43,3.72,24.58
		c11.959-2.764,0.635-55.148-3.66-67.5c7.31,4.23,13.4,10.22,20.46,14.82c-3.404-6.681-12.299-18.594-11.46-48.56
		c9.124-5.902,1.088-22.648-0.8-52.58c18.935,2.336,15.286,24.423,21.92,38.54c8.328-6.84,20.215-36.998,15.66-48.58
		c-3.53-8.79-10.31-15.59-16.11-22.87c7.78,1.62,15.22,4.53,22.91,6.52c-9.3-10.49-20.14-19.88-27.37-32.02
		c8.674-7.706,21.764-2.066,30.09,5.84c-3.82-8.97-8.32-17.78-10.53-27.33c2.82,0.7,5.59,1.62,8.36,2.51
		c-11.643-19.763-42.909-46.086-66.09-47.74c13.631-7.787,38.919-12.447,48.04-1.18c2.9,3.44,2.78,8.14,3.32,12.36
		c9.033-13.719-4.403-25.384-18.25-34.03c24.984-0.326,27.874-1.913,29.3-6.28c-9.426-5.993-13.844,19.909-63.16-23.13
		c4.61,2.2,9.29,5.03,14.62,4.52c0.5-11.383-22.939-27.951-35.86-18.75c-38.629,27.393-15.521,14.893-46.99,25.97
		c-96.708,27.228-64.803,60.863-142.41,80.66c-29.3,7.214-30.406,3.379-60.21,6.6c-20.01,2.35-40.07,4.5-60.22,4.95
		c-60.218,0.581-44.108-10.827-52.06-13.87c-52.269-28.105-49.924-27.622-53.89-27.41c-16.78-0.37-33.72-2.16-49.66-7.65
		c0.05,8.75,1.69,17.77-1.06,26.29c-2.69,9.12-9.78,15.92-13.52,24.53c-13.373,29.082-15.374,76.383-8.69,105.95
		c5.155,23.56,12.038,34.787,20.59,73.25c-0.122-11.363-5.516-64.855,10.71-63.92c1.65,7.69,0.6,15.67,2.31,23.37
		c4.988,24.715,21.389,65.413,33.36,76.6c1.188-9.109,8.79-19.728,14.72-24.47c4.633,89.349,0.118,29.458,37.4,118.67
		c-4.4-4.55-7.76-9.96-11.58-14.98c-33.022-46.72-24.96-43.012-29.99-54.11c-0.67-0.25-2.02-0.75-2.7-1
		c-1.05,13.64,0.52,27.33-0.16,40.98c-12.005-23.28-21.15-89.216-42.78-109.24c-5.446,1.684,0.298,34.912-0.57,53.36
		c-8.014-5.828-17.792-51.905-30.74-86.86c-17.645-42.584-16.153-28.926-14.89-79.49c2.368-60.798,23.365-75.325,26.04-86.22
		c2.006-7.621,5.047-28.814-0.93-33.71c-19.074-17.949-7.272-31.889-18.02-39.93c-7.049,31.173,1.121,31.176-21.56,57.19
		c-46.796,52.091-42.271,120.817-19.29,186.37c-23.395-12.005-33.134-48.44-35.46-74.69c-1.33-10.29-5.35-20.36-4.01-30.88
		c-8.456,10.965-14.779,16.065-22.79,33.54c-12.16,40.908,10.122,39.403,16.2,63.55c-8.55-6.64-16.22-14.33-24.6-21.19
		c-7.733,23.94-17.027,51.641-17.37,60.89c2.34-0.91,4.62-1.94,6.95-2.87c0.478,11.173-2.92,18.249,3.49,70.84
		c1.43,9.92,2.24,20.03,5.09,29.68c7.874-13.769,16.317-31.122,23.25-37.83c-3.803,15.595-11.194,83.533,0.35,94.06
		c4.7-16.21,7.11-33.07,12.44-49.1c3.241,13.13,11.975,48.389,19.7,59.61c2.574-17.749,5.244-32.63,9.32-34.73
		c1.72,12.99,0.31,26.21-1.12,39.17c7.75,7.5,14.1,16.43,22.76,22.99c6.32,5.01,13.81,8.65,18.9,15.09
		c-1.9-5.02-18.31-48.57-24.33-65.44c-7.269,9.603,3.17,16.337,1.51,26.27c-19.586-14.26-14.762-36.982,1.43-54.98
		c6.727,26.003,23.907,77.867,35.07,111.44c-1.801-24.096-7.376-61.51-4.49-74.48c2.41,8.53,1.89,19.46,9.95,25.05
		c1.56,1.64,2.21,3.9,3.05,5.97c6.56,18.81,11.6,38.3,20.99,55.99c10.338,19.428,17.281,15.95,32.6,45.37
		c8.18,15.15,13.15,31.77,21.06,47.05c5.39-5.63,10.42-11.58,15.85-17.15c31.449,20.966,39.142,36.309,48.53,82.3
		c8.925-37.047,17.234-30.684,8.82-112.35c3.89,19.01,8.15,38.08,9.41,57.48c30.753,16.91,29.523,91.25,31.01,128.61
		c0.23,103.17-1.683,99.84-23.52,118.11c-11.402,9.369-42.377,40.152-29.25,46.69c4.4-7.27,10.3-15.62,19.59-16.2
		c-2.662,8.774-10.333,8.503-13.79,25.82c-2.286,12.956,4.342,16.095,16.38,15.99c7.56-11.85,16.93-24.19,30.94-28.51
		c-9.03,7.94-18.37,16.22-23.84,27.13c-1.21,3.85-3.91,9.56,0.34,12.48c9.471,5.828,27.523,1.875,31.7-4.35
		c8.327-11.938,15.556-31.956,27.78-28.19c-11.919,5.157-25.286,26.688-13.16,30.45c21.173,6.762,26.351-0.666,33.6-4.03
		c9.54-5.03,19.98-8.69,28.4-15.61c15.072-12.493,16.841-38.792,21.37-59.38c6.272-29.358,29.049-114.022,57.41-125.34
		c-0.478,9.814-9.253,26.862-13.35,39.07c6.09-8.87,10.61-18.72,15.68-28.19c21.825-44.776,11.269-31.515,18.66-38.37
		c16.014-12.693,16.951-30.925,22.6-36.37c-0.89,16.6-6.7,32.62-7.23,49.25c11.211-16.366,29.851-76.181,55.27-98.62
		c-0.897,8.83-9.126,42.191-14.19,69.41c10.6-15.3,19.88-31.53,30.47-46.82c25.598-18.189,46.428-1.343,50.79-46.45
		c0.61-5.02-2-9.47-3.41-14.08c1.65,0.58,3.5,1.15,4.48,2.77c3.663,5.231,9.765,20.587,9.35,26.04
		c-2.62,17.19-6.52,34.21-8.61,51.48c34.18-93.978,29.787-112.889,31.04-146.47c3.865,9.782,5.189,46.316,5.72,58.33
		c-0.03,5.05,3.22,9.28,3.98,14.2c3.24,16.29,0.14,32.9,0.34,49.32c9.205-23.112,21.084-60.153,28.82-69.38
		c1.769,7.601,0.868,6.077,10.64,78.11c1.669-14.329,0.679-59.566,2.37-75.8c9.446,4.915,24.213,55.942,32.98,68.18
		c-1.98-22.11-5.46-44.1-7-66.25c5.132,8.14,24.926,50.425,36.45,71.75c2.82-46.4,5.43-92.82,7.1-139.28
		c9.838,40.182-9.434,153.217,4.64,159.77c-1.529-24.35,12.74-59.295,25.08-71.82c7.585,8.281,2.776,13.571,5.99,26.93
		c3.62,16.58,13.32,30.98,23.43,44.3c-0.968-10.894,3.427-37.048,11.48-43.91c22.13-20.551,29.416-65.846,31-96.14
		c0.49-13.44,0.75-27.15-2.87-40.23c7.32,8.031,6.82,24.893,6.74,38.23c-2.013,74.483-16.511,76.225-23.63,94.81
		c12.677-6.642,22.697-37.557,27.51-51.18c8.694,24.271,20.762,61.925,27.95,69.71c3.463-19.855-1.785-80.898-0.8-87.98
		c1.255,1.82,37.655,75.977,53.17,83.67c-1.571-13.251-14.798-34.1,5.94-34.3c-19.18-14.17-29.8-36.79-35.5-59.38
		c-4.397-15.849-21.43-79.331-14.45-94.31c0.39,0.02,1.18,0.06,1.58,0.08c4.48,4.58,5.92,11.17,8.05,17.04
		c19.768,66.689,10.525,86.411,24.11,102.91c7.25,8.5,17.23,14.01,24.98,21.99c6.959,7.004,29.077,68.364,44.31,75.36
		c-0.146-1.004-8.962-46.631-11.14-70.73c8.71,25.754,29.35,77.735,50.97,93.27c-3.865-17.141-16.526-62.266-9.91-73.04
		c9.023,17.609-9.786,37.931,78.16,89.86c10.037,4.754-12.39,149.675-20.74,159.76c-17.384,21.018-38.285,16.447-41.7,56.52
		c7.932-11.355,20.531-15.869,28.59-14.98c-2.344,11.292-22.974,17.828-20.81,22.87c3.947,13.415,33.39,25.763,36.4,11.88
		c2.194-10.038,15.575-29.817,24.26-32.12c-3.18,9.75-9.89,18.12-12.16,28.19c12.993,43.447,122.068-24.697,107.86-84.8
		c-18.805-88.137,69.336-172.197,58.33-254.26c-14.905,54.98-55.122,90.913-101.72,104.38c3.81-3.75,8.07-7.03,11.55-11.11
		c43.633-49.288,57.128-177.938,47.61-225.48c-4.056,8.492-24.599,64.965-66.71,117.41c-4.48,4.88-8.33,10.97-14.69,13.55
		c2.105-13.999,32.113-47.65,47.62-96.69c12.813-39.232,20.786-93.463,3.15-130.7c-2.35,6.61-4.23,13.39-7.13,19.79
		c-8.86,20.35-21.35,38.83-34.18,56.84c-21.85,30.61-46.29,59.65-63.8,93.12c2.77-10.23,7.11-19.95,11.22-29.69
		c18.25-41.21,39.05-81.49,52.3-124.7c11.61-37.18,17.81-76.54,13.73-115.47c-3.87-38.93-17.99-76.52-39.13-109.32
		c-0.08,36.77-1.5,73.58-5.64,110.13c-2.19,17.17-4.42,34.58-10.72,50.82c-11,30.65-22.46,61.19-36.36,90.67
		c-7.29,15.64-16.16,30.55-22.41,46.67c0.7-5.55,2.33-10.91,3.79-16.28c5.22-19.65,11.67-38.95,17.62-58.39
		c28.101-89.655,40.317-168.656,12.77-261.48c0.663,9.172,6.061,34.132-2.52,80.94c-12.069,62.936-42.819,123.281-52.69,133.57
		c3.128-13.017,87.839-281.729-11.59-328.82c9.321,38.256,10.48,70.782-18.14,108.61c5.369-54.719,6.345-117.082-42.65-144.83
		C1239.81,791.48,1221.71,786.9,1203.67,786 M486.79,801.76c-71.926,18.964-89.531,46.74-85.77,60.91
		c20.471,13.32,33.37-7.981,75.93,25.37c-15.966-48.319,75.478-71.125,109.74-67.82c4.15,0.24,7.71,2.45,11.39,4.13
		c6.211-0.411,30.895-9.942,35.2-20.02C605.652,781.169,527.034,791.505,486.79,801.76 M656.83,799.93
		c-12.776,5.419-57.114,37.657-73.89,34.21c-45.971-12.617-91.803,13.582-101.57,43.26c-5.527,16.399,6.749,28.667,12.38,26.35
		c32.198-8.394,158.903-63.827,173.26-105.08C663.57,798.32,660.02,798.48,656.83,799.93 M1610.03,832.02
		c-0.32,2.17,1.5,3.69,2.69,5.27c98.261,116.173,27.941,275.255,61.82,439.8c-3.468-147.88,49.771-176.114,18.9-326.62
		c-17.247-47.053-38.724-123.355-78.73-140.17C1612.64,817.4,1610.5,824.6,1610.03,832.02 M1474.03,948.67
		c1.2,4.6,3.25,8.91,4.93,13.34c7.41,18.93,15.11,37.8,20.58,57.41c6.37,22.31,9.77,45.43,10.6,68.61
		c1.11,24.05-0.49,48.11-1.93,72.1c6.14-20.1,9.49-41.08,9.31-62.13c-0.1-44.87-13.34-88.78-32.69-128.94
		C1481.33,962.22,1478.32,955.08,1474.03,948.67 M378.49,1283.9c0.3,21.11,0.54,42.29,3.39,63.25
		c-14.321-16.154-14.912-28.069-21.89-32.14c-5.26-2.91-9.89-6.95-15.61-8.98c-31.192,54.005-72.775,54.823-24.24,171.85
		c3.3,6.21,7.89,11.69,10.91,18.09c20.413,38.941,19.392,65.092,42.12,119.89c9.713,21.135,16.887,20.961,26.99,16.98
		c-13.605-5.618-25.789-31.752-16.16-40.44c10.203,33.755,15.827,29.744,27.46,37.08c9.199,5.653,15.489-0.127,21.55-9.03
		c-14.711-2.837-19.665-19.751-15.54-30.91c3.95,8.04,7.44,16.63,13.95,23.02c20.04,19.531,29.706-32.305,30.81-48.58
		c1.175-15.662-21.832-37.321-22.96-43.17c-29.89-108.083-10.336-102.577-4.58-114.94c-0.374-2.346-11.691-35.454-29.48-45.13
		C396.31,1352.218,382.274,1297.224,378.49,1283.9 M1297,1471.9c1.9,13.88,5.83,27.44,7.33,41.37
		c-10.093-2.942-23.014-28.375-28.48-37.93c-0.86,13.24,11.13,22.79,12.28,35.63c2.618,26.758-21.828,79.789-25.33,80.74
		c-38.204,13.39-72.231,33.126-49.94,66.46c0.95-8.43,0.92-17.52,5.34-25.04c0.65-1.81,3.35-2.3,3.46,0.13
		c0.91,6.88-1.85,13.78-0.75,20.7c0.39,2.24,2.31,3.74,3.5,5.59c2.733,6.192,1.612,11.526,13.43,7.33
		c-0.63-3.28-1.52-6.56-1.24-9.91c0.43-6.25,4.48-12.13,10.34-14.47c-5.068,21.906-6.557,31.151,24.06,23.45
		c32.411-8.59,75.92-31.342,95.48-47.51c7.882-6.031,19.562-41.42,20.88-69.48c-1.56-9.875-19.266-23.957-33.54-38.82
		c-3.46-3.48-5.05-8.24-7.98-12.09c-3.11,7.01-2.75,15.03-6.06,22C1317.232,1518.615,1316.836,1504.617,1297,1471.9z"/>
	<path d="M580.42,405.66c8.674-0.811,32.216-0.942,38.53,5.42c9.06,8.53,15.71,19.54,19.66,31.31c1.35,3.7,2.59,8.17,6.44,10.03
		c3.59-0.5,7.66-2.78,10.97-0.16c0.8,6.85-0.92,14.73-6.41,19.36c-22.714,20.812-49.62,27.75-85.07,13.87
		c-11.245-4.172-22.258-21.646-29.29-28.78c-4.749-4.887-14.809-5.286-9.16-12.66c5.434-3.811,4.277,0.879,14.66-12.3
		C549.039,420.599,569.316,406.948,580.42,405.66 M572.55,420.56c-3.52,3.36-7.74,6.08-10.13,10.47c1.78,1.91,3.8,3.66,5.09,5.97
		c-0.57,2.5-3.44,2.78-5.39,3.7c4.748,11.728,6.351,7.231,6.1,15.17c2.43,1.96,4.82,4.23,7.87,5.18
		c7.43-1.99,12.51-10.47,11.24-18.01c-0.98-3.37-5.16-4.12-6.84-7.04c0.16-0.4,0.48-1.22,0.65-1.62c6.25-4.41,15.42-2.46,20.96-8.26
		C608.957,419.716,584.657,405.364,572.55,420.56 M623.24,431.64c-0.027,12.725,5.767,36.796-24.43,42.17
		c-10.21,2.19-21.45,0.58-30.07-5.49c-17.591-12.476-14.635-17.606-16.85-35.73c-3.51,5.1-7,10.24-11.5,14.54
		c5.87,7.56,11.52,15.39,18.48,22.02c20.692,19.878,57.512,21.264,86.29-6.68c-3.27-0.92-7.02-1.53-9.16-4.45
		C629.91,450.2,628.33,440.01,623.24,431.64z"/>
	<path d="M812.42,942.39c20.701,3.435,59.556,132.947,22.98,165.99c-5.65,4.82-7.52,12.36-11.74,18.25
		c-8.328,12.393-15.983,9.662-13.81,0.4c1.52-5.68,3.51-11.51,2.23-17.46c-4.417,8.762-6.061,31.908-19.11,53.38
		c-4.54,7.6-10.28,14.37-15.67,21.36c-29.142,36.377-31.318,27.337-49.5,45.5c-11.832,11.915-9.899,20.353-13.17,26.86
		c-9.615,19.891-18.578,36.108-30.68,39.69c-5.073-10.145-2.05-24.494-2.92-40.05c-10.856,12.972-2.049,41.299-51.18,53.93
		c-0.088-6.878,0.638-11.258,19.53-67.02c3.815,6.233-4.729,33.901-4.98,55.18c8.811-2.694,33.843-58.594,50.4-82.43
		c-1.206,17.026-5.149,51.323-4.67,61.8c7.034-9.522,21.707-52.159,31.13-57.48c16.53-8.97,31.34-21.35,42.43-36.6
		c8.36-11.37,18.2-21.84,24.43-34.64c10.478-24.06,12.541-63.189,21.02-74.4c7.108-1.404,12.217,19.61,15.21,27.88
		c14.208-13.186,24.095-78.587-4.33-144.54C817.84,952.61,814.63,947.74,812.42,942.39z"/>
	<path d="M302.94,1075.33c8.866,7.381,14.188,46.752,27.55,77.23c10.982,27.334,61.816,80.668,82.45,105.47
		c-3.27-7.89-6.87-15.7-8.92-24.02c-1.77-6.02-2.17-12.44-4.83-18.18c-2.14-4.98-5.26-9.6-6.26-15
		c8.396,3.811,26.84,18.493,42.34,52.87c19.582,43.139,32.998,46.44,54.42,62.62c4.85,3.38,9.39,7.2,14.48,10.22
		c-5.142-11.243-15.063-26.241-14.63-33.8c14.84,2.947,42.008,39.632,66.1,65.62c21.524,18.74,16.341,45.428,1.31,69.54
		c15.07-14.83,29.8-29.99,44.84-44.84c1.55,4.1,3.06,8.24,4.82,12.27c7.283-15.658,10.477-9.738,26.41-29.32
		c2.683-3.069,11.528-16.398,29.16-30.13c-32.664,53.786-50.348,45.681-55.6,83.4c-2.67-7.32-4.67-14.86-6.97-22.29
		c-17.55,13.73-34.24,28.54-51.81,42.24c19.716-53.042,10.709-56.16,0.75-67.76c-16.14-19.21-30.1-40.1-44.55-60.57
		c5.52,13.41,12.87,26.03,18.43,39.43c-65.342-42.606-97.215-99.654-106.1-111.5c-3.566,23.969,28.479,51.054,37.78,73.36
		c-12.009-8.928-111.904-112.272-118-127.33C330.044,1166.398,303.3,1135.367,302.94,1075.33z"/>
</g>
</svg>
